<?xml version="1.0" encoding="utf-8"?>
<!-- Generator: Adobe Illustrator 16.0.0, SVG Export Plug-In . SVG Version: 6.00 Build 0)  -->
<!DOCTYPE svg PUBLIC "-//W3C//DTD SVG 1.1//EN" "http://www.w3.org/Graphics/SVG/1.1/DTD/svg11.dtd">
<svg version="1.1" id="Capa_1" xmlns="http://www.w3.org/2000/svg" xmlns:xlink="http://www.w3.org/1999/xlink" x="0px" y="0px"
	 width="381px" height="182.6px" viewBox="0 0 381 182.6" enable-background="new 0 0 381 182.6" xml:space="preserve">
<rect fill="#DCA0DC" width="381" height="182.6"/>
<path fill="#50285A" d="M144.225,4.042l2.763-0.49l2.51,0.042l1.116-0.294l2.586-0.069l5.723,0.097l4.333,0.625l-1.467,0.31
	l-2.826,0.045l-4.011,0.075l0.31,0.151l2.67-0.091l2.114,0.289l1.52-0.259l0.525,0.305l-0.944,0.499l1.993-0.313l3.689-0.338
	l2.187,0.168l0.345,0.373l-3.16,0.622l-0.475,0.211l-2.436,0.164l1.743,0.033l-1.012,0.682l-0.757,0.612l-0.175,1.08l0.823,0.64
	l-1.228,0.036l-1.369,0.323l1.393,0.525l0.029,0.862l-0.888,0.111l0.905,0.875l-1.796,0.075l0.866,0.433l-0.326,0.378l-1.176,0.152
	h-1.152l0.909,0.725l-0.081,0.48l-1.562-0.442l-0.471,0.288l1.059,0.25l0.998,0.658l0.16,0.877l-1.521,0.216l-0.592-0.431
	l-0.915-0.604l0.167,0.721l-1.108,0.569l2.211,0.059l1.178,0.059l-2.454,0.949l-2.473,0.876l-2.586,0.38h-0.961l-0.999,0.442
	l-1.455,1.172l-2.077,0.794l-0.616,0.061l-1.237,0.266l-1.337,0.267l-0.953,0.72l-0.211,0.806l-0.678,0.748l-1.699,0.919
	l0.115,0.925l-0.646,0.973l-0.758,1.149l-1.31,0.064l-1.096-0.959h-1.845l-0.695-0.657l-0.243-1.138l-1.129-1.443l-0.203-0.747
	l0.253-1.031l-0.872-1.044l0.613-0.834l-0.417-0.405l1.319-1.308l1.443-0.399l0.511-0.478l0.492-0.851l-1.123,0.395l-0.518,0.159
	l-0.827,0.159l-0.905-0.357l0.233-0.749l0.566-0.588h0.756l1.622,0.274l-1.19-0.684l-0.576-0.369l-0.905,0.155l-0.58-0.271
	l1.344-1.002l-0.343-0.383l-0.329-0.741l-0.493-1.107l-0.832-0.39l0.207-0.425l-1.823-0.604l-1.653-0.073l-2.142,0.037l-1.993,0.073
	l-0.733-0.309l-1.004-0.63l2.273-0.321l1.617-0.053l-3.204-0.248l-1.471-0.404l0.34-0.365l3.278-0.464l3.11-0.458l0.533-0.334
	l-1.819-0.331l0.923-0.359l3.101-0.623l1.148-0.094l-0.021-0.388l1.93-0.213l2.393-0.136l2.27-0.015l0.608,0.272l2.286-0.466
	l1.545,0.314l1.001,0.061l1.389,0.275l-1.49-0.457L144.225,4.042z M110.628,4.64l1.271-0.152l0.887-0.03l1.619-0.135l1.452-0.311
	l0.845,0.044l0.522,0.237l1.062-0.441l1.125-0.13l1.412-0.085l2.274-0.042l0.271,0.085l2.262-0.128l1.523,0.042l1.512,0.057
	l1.883,0.057l1.48,0.101l1.148,0.218l-0.241,0.221l-2.083,0.361l-1.97,0.184l-0.826,0.186h1.637l-2.207,0.536l-1.411,0.241
	l-1.894,0.754l-1.682,0.15l-0.638,0.184l-2.398,0.101l0.986,0.119l-0.685,0.17l0.292,0.463l-0.968,0.33l-1.411,0.279l-0.647,0.388
	l-1.321,0.302l-0.04,0.214l1.389-0.036L116.9,9.406l-2.54,0.615l-1.883-0.29l-2.437,0.163l-1.105-0.127l-1.444-0.054l0.256-0.468
	l1.661-0.232l0.178-0.708l0.536-0.07l1.744,0.422l-0.576-0.615l-1.1-0.191l0.966-0.379l1.553-0.222l0.5-0.322l-0.745-0.369
	l0.104-0.462l2.045,0.033l0.511,0.098l1.472-0.327l-1.581-0.113l-2.728,0.064l-1.021-0.306l-0.251-0.349l-0.565-0.266L110.628,4.64z
	 M106.036,5.771l0.815-0.272l0.828-0.064l-0.093-0.206l1.786-0.032l0.449,0.461l1.078,0.193l1.076,0.179l0.042,0.594l0.638,0.302
	l-1.305,0.288l-2.046,0.722l-1.459,0.07l-1.488-0.122l-0.476-0.397l0.321-0.341l0.851-0.254h-1.381l-0.553-0.302l-0.065-0.414
	L106.036,5.771z M248.88,5.403l1.387-0.206l1.967,0.445l2.712,0.883l0.674,0.844l-1.551,0.12l-2.43-0.273l-1.63-0.373l-1.218-0.648
	l-1.22-0.18L248.88,5.403z M212.355,5.788l1.382-0.161l1.157-0.016l0.27,0.242l0.317-0.209l0.612-0.16l1.261,0.208l-0.224,0.129
	l-0.942,0.113l-0.637,0.082l-0.03,0.147l-0.825,0.148l-0.93-0.213l0.283-0.293L212.355,5.788z M199.343,6.261l-0.984,0.499
	l-2.204,0.118l-2.296-0.151l-0.193-0.267l-1.102-0.017l-0.9-0.411l2.286-0.26l1.143,0.228l0.693-0.276l1.966,0.227L199.343,6.261z
	 M190.068,6.626l0.251-0.315l1.089-0.033l1.02,0.315l2.684,0.691l-1.872,0.377l-0.292,0.714l-0.672,0.194l-0.239,0.819l-0.963,0.036
	l-1.756-0.607l0.659-0.354l-1.217-0.281l-1.604-0.813l-0.661-0.727l2.017-0.332l0.485,0.315H190.068z M257.464,6.979l2.512,0.545
	l0.184,0.397l-4.047,0.366l0.188-1.258l0.53-0.101L257.464,6.979z M97.509,6.962l1.377,0.135l1.732,0.341l0.129,0.465l-0.072,0.401
	L99.509,8.2l-0.983-0.313l-1.681-0.052l1.035-0.276l-0.714-0.223L97.509,6.962z M103.727,7.473l0.612,0.327l-0.515,0.348
	l-1.343,0.21l-0.437-0.228l0.009-0.365l0.328-0.396l0.967,0.034L103.727,7.473z M92.775,7.438L93.6,7.627l-1.153,0.19h-1.286
	l0.151-0.139l1.13-0.292L92.775,7.438z M197.811,8.358l-1.663,0.388l-1.426-0.212l0.483-0.264l-0.512-0.314l1.554-0.191l0.389,0.365
	L197.811,8.358z M91.88,8.061l0.93,0.157l-0.543,0.281L90.51,8.781l-0.826-0.318l0.963-0.298L91.88,8.061z M104.906,8.675
	l-0.398,0.035l-1.406-0.071l0.039-0.264l1.56,0.018l0.381,0.176L104.906,8.675z M24.583,17.692L24.583,17.692l-5.442,4.476l0,0
	L24.583,17.692z M337.859,22.167l-0.551,0.516l-1.247-0.083l1.487,0.6l1.632,0.957l0.772,0.313l0.637,0.482l0.121,0.315
	l-1.993-0.273l-1.588,0.884l-0.661,0.147l-0.516,0.826l-0.58,0.723l0.173,0.534l-2.104-0.811l-1.509,0.918l-0.816-0.428
	l-0.417,0.492l-1.374-0.15l0.437,0.772l-0.02,1.165l0.489,0.498l1.283,0.261l1.451,1.768l-0.814,0.044l0.466,1.011l0.83,0.53
	l-1.114,0.642l0.801,1.401l-1.178,0.313l0.668,1.254l-0.517,1.171l-0.997-0.856l-1.821-1.815l-2.733-2.75l-0.976-1.689l0.158-0.72
	l-0.428-0.565l1.217-0.26l0.299-1.51l0.388-1.241l0.738-0.935l-0.899-1.645l-1.021,0.084l0.415,0.968l-1.044,1.293l-2.146-1.441
	l-1.973,0.401l-0.443,1.979l1.423,0.729l-1.804,0.301l-1.326,0.129l-0.686-0.86l-1.582-0.171l-0.663,0.579l-3.019-0.215
	l-2.732,0.366l-1.171,2.339l-1.501,2.877l1.592,0.155l1.034,0.776l1.123,0.267l0.196-0.6l1.085,0.066l2.36,1.358l0.789,1.074
	l0.11,1.237l0.885,1.492l0.865,2.025l-0.381,1.855l0.188,0.874l-0.528,1.499l-0.582,1.481l-0.22,0.766l-1.017,0.744l-0.615,0.023
	l-0.945-0.627l-0.922,0.953l0.059,0.419l-0.441-0.07l-0.229,0.443l-0.084,0.443l0.467,0.91l-0.381,0.304l-0.079,0.234l-0.239,0.374
	l-0.578,0.211l-0.292,0.351l0.21,0.562l-0.051,0.141l0.505,0.211l0.816,0.586l1.552,1.526l0.615,0.846l0.605,1.505l-0.095,0.73
	l-0.863,0.235l-0.635,0.542l-0.911,0.118l-0.379-0.707l-0.188-0.989l-1.029-1.365l0.711-0.211l-1.169-1.104l-0.597-0.258
	l-0.054,0.235l-0.254,0.118l-0.134-0.235l-0.321-0.141l-0.379-0.188l0.058-0.587l0.204-0.141l-0.222-0.258l-0.027-0.68l-0.177-0.234
	l-0.659-0.141l-0.639-0.351l-1.287,0.398l-0.493,0.609l-0.98,0.352l0.311-0.609l-0.44-0.515l0.451-0.866l-0.854-0.678l-0.691,0.467
	l-0.817,0.889l-0.288,0.843l-0.984,0.07l-0.281,0.609l0.905,0.868l0.911,0.211l0.265,0.587l0.977,0.376l0.813-0.916l1.139,0.493
	l0.698,0.047l0.419,0.682l-1.332,0.376l-0.226,0.706l-0.792,0.636l-0.202,0.918l1.403,0.73l0.862,1.272l1.059,1.203l1.027,1.015
	l0.311,0.967l-0.546,0.354l0.451,0.708l0.782,0.401l0.131,1.085l0.029,1.039l-0.551,0.118l-0.429,1.416l-0.41,1.723l-0.638,1.557
	l-1.216,1.202l-1.294,1.108l-1.194,0.142l-0.549,0.589l-0.484-0.424l-0.456,0.66l-1.417,0.636l-1.108,0.212l-0.135,1.39
	l-0.583,0.071l-0.496-0.966l0.184-0.495l-1.548-0.424l-0.474,0.212l-1.258,1.131l-0.739,1.224l-0.086,0.918l1.095,1.365l1.257,1.717
	l1.154,0.799l0.826,1.058l0.787,2.419l0.13,2.277l-0.88,0.868l-1.171,0.845l-0.835,1.079l-1.318,1.22l-0.468-0.844l0.253-0.868
	l-0.91-0.751l-0.943-0.188l-0.505-0.681l-0.692-1.338l-1.068-0.61l-0.962,0.023l0.052-1.033l-0.962,0.023l0.068,1.432l-0.428,1.901
	l-0.308,1.149l0.152,0.938l0.729,0.047l0.568,1.196l0.273,1.125l0.649,0.75l0.694,0.141l0.602,0.68l0.289,0.117l0.686,0.797
	l0.522,0.867l0.113,0.867l-0.103,0.586l0.095,0.469l0.101,0.75l0.413,0.374l0.465,1.148l-0.035,0.445l-0.769,0.07l-1.106-0.961
	l-1.315-1.03l-0.178-0.656l-0.673-0.867l-0.2-1.078l-0.434-0.727l0.119-0.938l-0.312-0.563l-0.471-0.492l-0.197-0.633L289.544,95
	l-0.604-0.61l-0.112,0.774l-0.248-0.727l0.065-0.82l0.229-1.244l-0.201-0.985l0.276-0.985l-0.475-0.774l-0.02-1.409l-0.555-0.681
	l-0.538-1.574l-0.4-1.646l-0.621-1.082l-0.634,0.659l-1.163,0.94l-0.614-0.117l-0.718-0.306l0.153-1.623l-0.406-1.223l-1.052-1.506
	l0.049-0.471l-0.661-0.165l-0.96-1.083l-0.425-0.683L279.764,77l-0.343-0.636l-0.562-0.754l-1.036-0.047l0.21,0.542l-0.24,0.707
	l-0.518-0.259l-0.12,0.236l-0.34-0.142l-0.454-0.118l-0.079,0.495L275.525,77l-1.307,0.259l0.228,0.989l-0.483,0.777l-1.47,0.871
	l-1.033,1.553l-0.737,0.824l-1.02,0.847l0.068,0.611l-0.487,0.306l-0.95,0.47l-0.513,0.07l-0.259,1.011l0.398,1.691l0.134,1.08
	l-0.342,1.244l0.159,2.206l-0.601,0.07l-0.421,0.985l0.349,0.446l-0.988,0.352l-0.355,0.891l-0.426,0.375l-1.113-1.219l-0.632-1.83
	l-0.529-1.314l-0.405-0.61l-0.695-1.244l-0.414-1.644l-0.269-0.799l-1.167-1.81l-0.733-2.516l-0.505-1.694l-0.186-1.577
	l-0.351-1.225l-1.529,0.777l-0.771-0.142l-1.623-1.602l0.455-0.471l-0.381-0.495l-1.451-1.132l-0.832-0.33l-0.481-0.943
	l-0.962-0.991l-1.968,0.259l-1.765,0.023l-1.512,0.166l-2.13-0.377l-1.216-0.307l-1.237-0.165l-0.67-1.604l-0.538-0.236
	l-0.831,0.236l-1.021,0.613l-1.382-0.425l-1.216-1.015l-1.096-0.354l-0.853-1.25l-1.033-1.747l-0.555,0.212l-0.715-0.448
	l-0.362,0.519l-0.629-0.071l0.304,0.59l-0.08,0.307l0.462,0.968l0.559,1.132l0.581,0.307l0.248,0.472l0.765,0.543l0.138,0.542
	l-0.071,0.425l0.204,0.448l0.354,0.377l0.201,0.424l0.189,0.307l-0.178-0.943l0.201-0.684l0.298-0.142l0.357,0.401l0.124,0.778
	l-0.156,0.755l0.251,0.519l0.189-0.071l0.076,0.354l0.845-0.212l0.911,0.047l0.675,0.047l0.649-0.896l0.689-0.849l0.61-0.802
	l0.26-0.448l0.132,0.118l-0.013,0.543l-0.129,0.236l0.279,1.038l0.575,0.896l0.684,0.471l0.808,0.165l0.697,0.236l0.559,0.754
	l0.365,0.448l0.414,0.165l0.031,0.283l-0.313,0.778l-0.159,0.377l-0.432,0.424l-0.308,0.895l-0.523-0.071l-0.169,0.306l-0.137,0.659
	l0.238,0.871l-0.104,0.165h-0.519l-0.634,0.495l-0.066,0.635l-0.218,0.259h-0.719l-0.372,0.33l0.04,0.518l-0.53,0.376l-0.608-0.118
	l-0.729,0.423l-0.473,0.094l-0.776,0.329l-0.2,0.588l-0.011,0.446l-1.045,0.564l-1.769,0.587l-0.909,0.94l-0.518,0.07l-0.326-0.094
	l-0.614,0.54l-0.709,0.258l-0.921,0.07l-0.277,0.071l-0.225,0.352l-0.316,0.094l-0.146,0.329l-0.564-0.023l-0.354,0.164
	l-0.766-0.047l-0.316-0.775l0.007-0.705l-0.22-0.399l-0.249-0.963l-0.349-0.541l0.198-0.047l-0.113-0.611l0.107-0.235l-0.072-0.588
	l-0.191-0.541l-0.343-0.4l-0.11-0.518l-0.627-0.47l-0.666-1.106l-0.347-1.059l-0.854-0.895l-0.491-0.212l-0.798-1.248l-0.222-0.919
	l0.023-0.778l-0.737-1.438l-0.552-0.519l-0.612-0.283l-0.448-0.731l0.055-0.307l-0.367-0.684l-0.336-0.283l-0.507-0.967
	l-0.751-1.062l-0.619-0.896h-0.546l0.135-0.731l0.002-0.449l0.072-0.519l-0.055-0.189l-0.229,0.52l-0.151,0.991l-0.257,0.684
	l-0.216,0.236l-0.424-0.424l-0.514-0.59l-0.928-1.888l-0.107,0.118l0.577,1.393l0.766,1.321l0.974,2.029l0.444,0.708l0.408,0.755
	l1.086,1.438l-0.22,0.235l0.098,0.849l1.383,1.178l0.176,0.259l0.441,1.295l-0.224,0.236l0.241,1.342l0.528,1.553l0.418,0.33
	l0.625,0.494l0.722,1.505l0.382,1.199l0.633,0.634l1.584,1.246l0.677,0.728l0.637,0.751l0.342,0.446l0.58,0.399l0.299,0.399
	l-0.018,0.54l-0.63,0.329l0.497,0.352l0.371,0.234l0.223,0.54l0.544,0.54h0.564l1.035-0.329l1.203-0.141l0.989-0.422l0.521-0.07
	l0.393-0.235l0.642-0.047l0.361-0.023l0.514-0.211l0.558-0.117l0.542-0.446h0.402l0.058,0.352l-0.085,0.751l0.03,0.68l-0.222,0.469
	l-0.226,1.431l-0.515,1.454l-0.638,1.641l-0.925,1.922l-0.904,1.453l-1.312,1.781l-1.125,1.054l-1.693,1.289l-1.011,0.983
	l-1.257,1.594l-0.246,0.679l-0.244,0.305l-0.813,0.516l-0.287,0.539l-0.406,0.094l-0.171,0.938l-0.37,0.515l-0.213,0.867
	l-0.492,0.422l-0.512,1.617l0.026,0.727l0.718,0.469l0.033,0.352l-0.342,0.774l0.071,0.398l-0.098,0.633l0.381,0.821l0.405,1.267
	l0.394,0.305l0.181,0.587l-0.087,1.29l0.074,1.15l-0.048,2.02l0.169,0.658l-0.365,0.916l-0.488,0.917l-0.762,0.8l-1.025,0.493
	l-1.272,0.636l-1.353,1.411l-0.411,0.235l-0.849,0.941l-0.454,0.306l-0.172,0.919l0.497,0.989l0.149,0.777l-0.024,0.377l0.201-0.048
	l-0.123,1.273l-0.199,0.612l0.222,0.213l-0.197,0.565l-0.465,0.448l-0.937,0.448l-1.385,0.707l-0.506,0.495l0.08,0.543l0.268,0.095
	l-0.167,0.684l-0.343,0.944l-0.201,1.109l-0.317,0.59l-0.79,0.66l-0.209,0.189l-0.517,0.66l-0.363,0.685l-0.691,0.921l-1.303,1.368
	l-0.83,0.778l-0.853,0.589l-1.151,0.519l-0.542,0.071l-0.141,0.354l-0.638-0.188l-0.553,0.235l-1.132-0.235l-0.662,0.165
	l-0.416-0.071l-1.143,0.519l-0.929,0.188l-0.679,0.495l-0.499,0.047l-0.393-0.471l-0.381-0.024l-0.427-0.589l-0.049,0.188
	l-0.134-0.354l0.04-0.777l-0.302-0.873l0.358-0.235l0.05-1.015l-0.677-1.227l-0.493-1.109l-0.708-1.699l-0.742-0.991l-0.396-0.968
	l-0.192-1.273l-0.244-0.943l-0.295-2.005l0.004-1.579l-0.101-0.707l-0.422-0.542l-0.568-1.084l-0.522-1.577l-0.223-0.824
	l-0.893-1.271l-0.063-0.988l-0.066-0.823l0.178-1.151l0.378-1.198l0.089-0.564l0.377-1.174l0.248-0.541l0.655-0.845l0.369-0.587
	l0.134-0.962l-0.032-0.728l-0.356-0.47l-0.274-0.798l-0.274-0.773l0.083-0.282l0.328-0.516l-0.313-1.266l-0.236-0.868l-0.561-0.82
	l0.123-0.258l-0.159-0.398l-0.318-0.984l-0.885-1.359l-1.17-1.335l-0.727-1.055l-0.688-1.359l0.041-0.421l0.243-0.422l0.284-0.938
	l0.201-0.983l-0.202-0.188l0.403-1.453l0.159-1.03l-0.447-0.867l-0.526-0.211l-0.245-0.586l-0.283-0.188l0.039-0.375l-1.172,0.469
	l-0.445-0.07l-0.404,0.305l-0.931-0.023l-0.609-0.82l-0.365-0.938l-0.771-0.867l-0.85,0.023h-1.011l-0.93,0.141l-0.889,0.281
	l-1.78,0.773l-0.607,0.445l-1.012,0.375l-1.011-0.375l-0.486,0.023l-0.809-0.258h-0.728l-1.335,0.234l-0.77,0.375l-1.094,0.492
	l-0.243-0.047l-0.283,0.023l-1.171-0.633l-1.008-0.984l-0.967-0.727l-0.723-0.82l-0.322-0.117l-0.805-0.516l-0.561-0.704
	l-0.198-0.469l-0.112-0.961l-0.517-0.774l-0.397-0.516l-0.321-0.165l-0.239-0.258l-0.154-0.563l-0.157-0.305l-0.319-0.211
	l-0.597-0.54l-0.441-0.094l-0.276-0.352l0.043-0.211l-0.357-0.282l-0.076-0.258l-0.144-1.009l0.131-0.587l-0.422-1.01l-0.552-0.47
	l0.486-0.235l0.58-0.917l0.254-0.682l-0.064-0.705l0.334-0.635l0.148-1.223l-0.088-1.294l-0.102-0.659l0.097-0.659l-0.261-0.612
	l-0.54-0.565l0.056-0.565l0.058-0.589l0.446-0.354l0.376-0.684l-0.065-0.448l0.423-0.919l0.618-0.849l0.36-0.212l0.338-0.755
	l0.022-0.708l0.417-0.802l0.759-0.472l0.744-1.345l0.562-0.519l1.018-0.142l0.881-0.896l0.554-0.354l0.92-1.086l-0.23-1.628
	l0.415-1.132l0.171-0.684l0.714-0.896l1.087-0.589l0.815-0.542l0.713-1.366l0.357-0.8h0.76l0.639,0.565l0.991-0.094l1.102,0.283
	l0.457,0.023l1.031-0.706l1.141-0.235l0.645-0.542l1.022-0.399l1.779-0.235l1.74-0.094l0.533,0.188l0.975-0.518h1.135l0.423,0.306
	l0.717-0.094l1.157-0.517l0.723,0.141l-0.017,0.658l0.893-0.47l0.085,0.258l-0.509,0.635l0.021,0.612l0.352,0.306l-0.077,1.13
	l-0.705,0.66l0.252,0.73l0.536,0.024l0.288,0.613l0.429,0.212l1.244,0.448l0.456-0.118l0.893,0.212l1.446,0.59l0.55,1.179
	l0.976,0.236l1.533,0.566l1.191,0.637l0.487-0.331l0.472-0.613l-0.284-0.991l0.313-0.637l0.735-0.613l0.719-0.188l1.438,0.259
	l0.422,0.59h0.385l0.361,0.236l1.089,0.142l0.261,0.448l1.426-0.024l1.067,0.354l1.109,0.377l0.519,0.212l0.779-0.425l0.396-0.377
	l0.957-0.094l0.785,0.165l0.323,0.637l0.235-0.425l0.876,0.307l0.856,0.071l0.473-0.33l0.271-0.425l-0.084-0.071l0.252-0.613
	l0.098-0.991l0.121-0.33l0.036-0.023l0.277-1.061l0.439-0.919l-0.006-0.047l-0.185-1.013l0.209-0.518l-0.485-0.611l0.364-0.471
	l-0.634,0.094l-0.903-0.282l-0.641,0.729l-1.615,0.165l-0.905-0.706l-1.142-0.047l-0.176,0.541l-0.743,0.165l-1.051-0.706
	l-1.173,0.023l-0.718-1.292l-0.855-0.728l0.437-1.008l-0.732-0.633l1.043-1.24l1.599-0.047l0.345-0.981l1.988,0.164l1.127-0.84
	l1.141-0.373l1.7-0.023l1.938,0.91l1.557,0.514l1.161-0.21l0.909,0.117l1.125-0.677l0.063-0.56l-0.394-0.862l-0.667-0.488
	l-0.61-0.14l-0.43-0.395l-1.452-1.09l-1.245-0.486l-0.99-0.763l0.697-0.208l0.669-1.061l-0.624-0.506l1.395-0.528l-0.082-0.275
	l-0.867,0.206l-0.779,0.092l-0.585,0.414l-0.93,0.069l-0.797,0.483l0.154,0.807l0.553,0.3l1.009-0.069l-0.116,0.439l-1.098,0.231
	l-1.25,0.741l-0.619-0.254l0.138-0.602l-1.143-0.37l0.147-0.254l0.886-0.438l-0.329-0.276l-1.603-0.323l-0.138-0.483l-0.883,0.161
	l-0.31,0.69l-0.646,0.946l0.042,0.347l-0.442,0.277l-0.342-0.116l-0.079,1.552l-0.493,0.534l-0.271,0.907l0.41,0.745l0.162,0.49
	l0.972,0.42l-0.151,0.327l-1.221,0.07l-0.407,0.397l-0.791,0.702l-0.393-0.608l-0.023-0.257l-0.638-0.047l-0.531-0.117l-1.237,0.327
	l0.772,0.749l-0.505,0.21h-0.561l-0.615-0.678l-0.164,0.281l0.285,0.772l0.573,0.609l-0.352,0.305l0.61,0.586l0.556,0.375
	l0.06,0.751l-0.97-0.352l0.352,0.657l-0.67,0.141l0.501,1.152l-0.719,0.023l-0.911-0.564l-0.451-1.058l-0.249-0.869l-0.454-0.586
	l-0.577-0.75l-0.102-0.375l-0.193-0.093l-0.02-0.281l-0.59-0.421l-0.155-0.631l0.013-0.888l0.12-0.396l-0.163-0.21l-0.229-0.093
	l-0.325-0.419l-0.462-0.256l-0.993-0.489l-0.62-0.465l-0.98-0.372l-0.901-0.951l0.214-0.093l-0.509-0.555l-0.063-0.417l-0.632-0.208
	l-0.297,0.555l-0.316-0.439l-0.024-0.439l0.035-0.023l0.248-0.115l-0.81-0.185l-0.813,0.461l0.067,0.624l-0.091,0.37l0.361,0.648
	l0.987,0.649l0.572,1.069l1.203,1.048h0.814l0.276,0.28l-0.282,0.257l0.957,0.467l0.769,0.397l0.938,0.678l0.127,0.234l-0.156,0.468
	l-0.637-0.608l-0.908-0.21l-0.398,0.842l0.775,0.468l-0.073,0.68l-0.407,0.094l-0.504,1.103l-0.446,0.118l-0.021-0.399l0.188-0.704
	l0.21-0.281l-0.453-0.75l-0.335-0.655l-0.457-0.164l-0.327-0.561l-0.683-0.234l-0.474-0.537l-0.783-0.07l-0.807-0.583l-0.999-0.839
	l-0.731-0.745l-0.346-1.277l-0.52-0.163l-0.858-0.417l-0.434,0.162l-0.567,0.603l-0.438,0.093l-0.899,0.743l-2.032-0.349
	l-1.466,0.418l-0.139,0.768l0.082,0.746l-0.956,0.863l-1.337,0.28l-0.073,0.444l-0.67,0.725l-0.375,1.054l0.413,0.75l-0.603,0.563
	l-0.228,0.845l-0.793,0.282l-0.762,0.987l-1.326,0.023l-1.022-0.023l-0.651,0.47l-0.426,0.494l-0.492-0.118l-0.409-0.447
	l-0.288-0.752l-0.979-0.188l-0.424,0.329l-0.525-0.188l-0.572,0.141l0.218-1.01l-0.09-0.798l-0.448-0.117l-0.248-0.493l0.103-0.867
	l0.427-0.468l0.091-0.515l0.249-0.795l-0.02-0.537l-0.17-0.467l-0.022-0.443l0.068-0.932l-0.386-0.558l1.466-0.929l1.242,0.232
	h1.359l1.099,0.209l0.847-0.046l1.654,0.023l0.519-0.766l0.196-2.566l-1.004-1.334l-0.75-0.642l-1.502-0.48l-0.088-0.937
	l1.292-0.274l1.676,0.319l-0.31-1.434l0.922,0.545l2.31-0.976l0.275-1.041l0.844-0.249l0.807-0.248l0.487-0.338l0.801-1.838
	l1.307-0.513l0.801,0.045l0.198-0.268l0.795-0.066l0.185,0.267l0.633-0.601l-0.229-0.466l-0.101-0.708l-0.407-0.684l-0.088-1.229
	l0.155-0.328l0.254-0.371l0.81-0.065l0.32-0.349l0.724-0.326l0.002,0.609l-0.248,0.393l0.155,0.349l0.521,0.175l-0.212,0.46
	l-0.28-0.131l-0.636,0.879l0.271,0.595l0.06,0.487l0.982,0.288l-0.011,0.422l0.989-0.222l0.497-0.333l1.139,0.488l0.478,0.378
	l0.632-0.355l1.438-0.577l1.169-0.42l0.985,0.221l0.097,0.288l0.934,0.022l0.152-0.531l1.263-0.397l-0.322-1.034l-0.071-0.919
	l0.385-0.763l0.827-0.413l0.86,0.914l0.743-0.021l0.077-0.936l0.002-0.714l-0.315,0.151l-0.659-0.41l-0.159-0.689l1.118-0.343
	l1.141-0.172l1.028,0.193l0.962-0.021l0.919-0.664l-1.054-0.555l-1.639,0.085l-1.559,0.427l-1.457,0.256l-0.615-0.641l-0.945-0.404
	l0.05-1.144l-0.595-1.052l0.362-0.69l0.705-0.729l1.83-1.241l0.568-0.227l-0.177-0.493l-1.321-0.532l-1.438,0.327l-0.746,0.78
	l0.224,0.701l-1.291,0.934l-1.628,1.002l-0.477,1.642l0.745,0.828l0.932,0.661l-0.688,1.351l-0.943,0.28l-0.182,2.017l-0.409,1.137
	l-1.169-0.109l-0.473,0.967l-1.095,0.044l-0.386-1.143l-0.873-1.375l-0.816-1.71l-0.68-0.731l-1.765,1.378l-1.231,0.281
	l-1.299-0.605l-0.375-1.29l-0.38-2.72l0.821-0.757l2.321-0.961l1.694-1.204l1.505-1.583l1.872-2.169l1.366-0.842l2.16-1.39
	l1.79-0.473l1.41,0.059l1.117-0.901l1.548,0.039l1.466-0.214l2.807,0.801l-1.029,0.295l1.067,0.69l0.797-0.395l1.565,0.672
	l2.399,0.258l3.583,1.259l0.799,0.523l0.271,0.749l-0.814,0.589l-1.341,0.306l-4.112-0.855l-0.627,0.142l1.607,0.835l0.511,1.686
	l1.235,0.352l0.779,0.311l-0.036-0.56l-0.667-0.517l0.476-0.412l2.313,0.701l0.698-0.268l-0.826-0.843l1.755-1.103l0.805,0.061
	l0.932,0.387l0.275-0.773l-0.919-0.668l0.236-0.665l-0.863-0.701l2.524,0.36l0.697,0.623l-1.046,0.141l0.193,0.626l0.81,0.385
	l1.272-0.244l-0.012-0.708l1.622-0.543l2.653-0.96l0.639,0.06l-0.579,0.679l1.131,0.12l0.443-0.38l1.592-0.04l1.11-0.459
	l1.239,0.679l0.677-0.739l-1.163-0.635l0.267-0.375l2.656,0.336l1.35,0.337l3.681,1.277l0.312-0.58l-1.141-0.578l-0.146-0.238
	l-1.1-0.119l0.06-0.514l-0.864-0.845l-0.202-0.352l1.047-0.97l0.024-0.98l0.51-0.21l2.352,0.287l0.479,0.595l-0.309,0.87
	l0.688,0.331l0.676,0.763l0.596,1.501l1.303,0.678l0.014,0.762l-0.95,1.579l1.097,0.184l0.149-0.407l0.823-0.305l-0.055-0.546
	l0.472-0.544l-0.817-0.622l0.017-0.738l-0.996-0.08l-0.505-0.615l0.084-1.102l-1.563-0.878l1.092-0.735l-0.634-0.749l0.394-0.038
	l0.788,0.594l0.26,1.044l0.983,0.195l-0.8-0.776l1.13-0.424l1.696-0.058l1.899,0.618l-1.288-0.886l-0.772-1.143l1.278-0.208
	l2.006,0.056l1.659-0.15l-1.049-0.544l0.486-0.67l0.871-0.037l1.19-0.498l2.019-0.147l0.041-0.274l2.021-0.091l0.841,0.219
	l1.333-0.527l1.474,0.018l-0.156-0.433l0.347-0.429l1.479-0.407l1.663,0.318l-0.838,0.25l1.941,0.161l0.659,0.486l0.491-0.234h2.337
	l2.25,0.488l1.033,0.383l0.31,0.533l-0.621,0.296l-1.6,0.577l-0.333,0.319l1.158,0.15l1.437,0.264l0.549-0.208l1.02,0.681
	l0.101-0.285l1.158-0.151l2.806,0.17l0.635,0.494l3.578,0.152l-0.707-0.797l1.903,0.17h1.296l1.878,0.551l1.065,0.689l-0.077,0.443
	l1.871,0.853l1.74,0.429l-0.285-1.128l1.801,0.485l1.151-0.291l1.928,0.33l0.334-0.291l1.492,0.136l-1.63-0.984l0.609-0.46
	l8.234,0.69l1.436,0.638l3.085,0.817l3.164-0.195l1.896,0.176l1.22,0.45l0.783,0.788l1.433,0.316l0.883-0.218l1.452-0.04
	l1.848,0.218l1.482-0.119l2.688,0.993l0.62-0.358l-1.566-0.714l-0.181-0.474l3.05,0.296l1.696-0.059l3.097,0.514l1.826,0.497
	L337.859,22.167z M229.587,55.245l0.494,0.962l1.023,0.259l0.862,0.658l1.516,0.235l1.606-0.353l0.022-0.306l-0.349-0.916
	l-0.094-1.361l-0.906-0.445l0.136-0.89l-0.724-0.07l0.019-1.099l1.026,0.304l0.853-0.397l-0.899-0.794l-0.44-0.723l-0.787,0.326
	l0.069,0.933l-0.459-0.84l-0.133-0.303l0.153-0.536l-0.277-0.465l-1.267-0.442l-0.704-1.137l-0.615-0.325l-0.125-0.44l1.016,0.139
	l-0.16-0.948l0.794-0.208l0.95,0.185l-0.092-1.246l-0.356-0.782l-1.002,0.046l-0.933-0.298l-1.037,0.551l-0.884,0.276l-0.279,0.76
	l-0.94,0.208l-0.768,1.317l1.145,1.229l0.089,0.883l1.382,1.513l0.678,0.677l0.688,0.935l0.492,0.046l0.361,0.351l-0.838,0.117
	l-0.014,1.007l-0.075,0.445l-0.362,0.305L229.587,55.245z M80.62,10.076l2.133-0.741l2.313-0.642h1.214l1.225-0.141l-0.92,0.765
	l-0.951,0.342l-0.798,0.054l-1.938,0.436l-1.415,0.146L80.62,10.076z M106.971,11.849l-1.22-0.131l-1.907-0.335l0.164-0.556
	l0.287-0.514l-0.424-0.437l-1.554-0.127l-0.653-0.307l0.641-0.412l1.583,0.072l0.582,0.322l1.581-0.018l0.41,0.343l-0.472,0.381
	l0.75,0.219l0.309,0.238l1.055,0.055l1.101,0.074l1.428-0.22l1.694-0.074l1.245,0.074l0.605,0.386l-0.107,0.426l-0.665,0.26
	l-1.373,0.224l-0.934-0.131l-2.45,0.168L106.971,11.849z M222.215,12.525l1.529-0.919l-0.416-0.465l1.531-0.554l2.291-0.639
	l2.553-0.199l1.161-0.36l1.45-0.144l0.781,0.396l-0.349,0.326l-2.535,0.492l-2.192,0.497l-2.019,0.986l-0.769,1.019l-0.839,1.012
	l0.521,0.888l2.002,0.896l-0.475,0.098l-2.812-0.137l-0.403-0.488l-1.619-0.292l-0.343-0.581l0.746-0.231l-0.26-0.575l1.247-0.913
	L222.215,12.525z M92.357,10.35l0.869-0.165l0.8,0.037l-0.315,0.513l-0.915,0.48l-2.879,0.167l-2.443,0.448L86.2,11.849l0.223-0.336
	l2.085-0.464l-3.747,0.13l-0.952-0.185l2.074-0.99l1.036-0.29l1.892,0.345l0.866,0.604l1.318,0.074l-0.242-0.968l1.09-0.361
	l0.722,0.108l-0.188,0.471L92.357,10.35z M100.384,9.604l0.167-0.126l0.212,0.452l-0.414,0.529l-0.994,0.756l-1.427,0.111
	l-0.733-0.167l0.525-0.59l-1.361,0.073l0.63-0.785l0.827,0.036l1.474-0.344L100.384,9.604z M289.094,10.058l2.159,0.055l3.523,0.53
	l0.271,0.758l-2.987-0.019l-1.063,0.242l-2.354-0.668l-0.374-0.698L289.094,10.058z M102.999,11.234l-0.75,0.409l-1.108-0.075
	l-0.77-0.279l0.804-0.463l1.376-0.276l0.402,0.368L102.999,11.234z M297.562,10.864l2.371,0.277l-0.428,0.409l-1.394-0.093
	l-2.004-0.408l-0.201-0.332L297.562,10.864z M75.135,15.563l-0.028-0.468l-1.382-0.582l0.598-0.347l1.497-0.881l1.372-0.684
	l-0.159-0.64l2.914-0.168l0.939,0.206l2.024,0.056l0.493,0.32l0.486,0.435l-1.274,0.266L79.92,13.82l-1.695,0.751l-0.4,0.446
	L75.135,15.563z M101.63,12.111l1.671,0.038l1.363,0.264l-1.902,0.929l-1.129,0.21l-1.468,0.807l-0.916-0.058l0.165-0.921
	l0.426-0.533l0.754-0.454L101.63,12.111z M293.17,12.923l0.337-0.417l0.894-0.094l1.624,0.397l0.407,0.285h-1.242l-1.81-0.114
	L293.17,12.923z M95.192,14.649l-1.444-0.81l0.27-0.345l1.589,0.134l-0.368-0.705l1.377-0.511l0.792,0.227l1.573-0.132l-0.025,0.303
	l-1.158,0.513l0.905,0.459l-0.851,0.964l-1.648,0.408l-0.756-0.078L95.192,14.649z M113.277,13.993l1.025-0.422l1.532,0.537
	l0.844,0.521l-0.167,0.465l1.69-0.233l0.514,0.681l1.81,0.43l0.516,0.432l0.301,1.028l-1.817,0.518l1.704,0.72l1.249,0.261
	l0.799,1.029l1.354,0.061l-0.612,0.793l-2.106,1.332l-0.874-0.493l-0.918-1.083l-1.199,0.143l-0.38,0.633l0.621,0.677l0.99,0.515
	l0.221,0.31l0.106,1.142l-0.631,0.836l-1.007-0.314l-1.862-0.938l0.831,1.001l0.647,0.713v0.4l-2.287-0.463l-1.625-0.671
	l-0.847-0.564l0.475-0.333l-1.082-0.581l-1.015-0.558l-0.16,0.331l-2.655,0.186l-0.529-0.414l0.993-0.824l1.663-0.021l1.891-0.164
	l-0.095-0.389l0.597-0.571l1.67-1.095l0.001-0.504l-0.15-0.382l-1.023-0.54l-1.558-0.379l0.704-0.279l-0.521-0.673l-0.731-0.059
	l-0.46-0.375l-0.606,0.315l-1.638,0.138l-2.943-0.236l-1.603-0.315l-1.255-0.177l-0.457-0.372l1.208-0.507h-1.176l0.458-1.084
	l1.282-0.957l1.159-0.437l2.3-0.265l-1.08,0.683l0.223,0.649l1.335-0.858l2.335-0.417l0.733,1.084l-0.543,0.691L113.277,13.993z
	 M112.734,13.514l-0.574-0.552l0.27-0.379l0.459-0.076l1.783,0.113l1.063,0.588l-0.08,0.286l-0.868-0.038l-0.878-0.019l-0.983,0.153
	L112.734,13.514z M91.312,12.677l1.121-0.038l0.432,0.227l-1.283,0.705l-0.692-0.743L91.312,12.677z M90.914,13.228l0.562,0.439
	l-0.317,1.04l-0.316,0.758l1.024,0.528l1.13,0.53l-0.434,0.474l-1.48,0.099l0.25,0.417l-0.563,0.398l-1.457-0.159l-1.256-0.298
	l-1.028,0.06l-1.888,0.378l-2.685,0.2l-1.221,0.06l-0.05-0.518l-0.927-0.298l-0.834,0.119l-0.349-0.871l0.678-0.119l1.458-0.177
	l1.154,0.039l1.239-0.177l-1.43-0.255l-1.855,0.078l-1.167-0.02l-0.101-0.411l2.301-0.429l-1.282,0.02l-1.218-0.292l1.396-0.792
	l0.975-0.422L84,12.98l0.671,0.209l-0.853,0.497l2.094-0.325l0.701,0.536l1.375-0.536l0.483,0.344l-0.165,1.041l0.779-0.445
	l0.306-1.092l0.837-0.152L90.914,13.228z M94.544,31.74l0.729,0.459l0.4,0.592l1.043,0.33l0.763,0.506l1.539,0.088l0.982,0.11
	l-0.595,1.062l-0.247,1.246l0.168,1.387l0.974,1.192l0.895-0.406l1.02-1.28l0.296-1.961l-0.425-0.643l1.787-0.574l1.417-0.859
	l0.901-0.855l0.238-0.808l-0.202-1.021l-0.705-0.907l1.63-1.246l0.103-1.087l0.566-1.818l0.75-0.273l1.414,0.315l0.896,0.105
	l0.884-0.294l0.634,0.399l0.847,0.675l0.07,0.445l1.6,0.106l-0.439,0.979l-0.309,1.5l0.759,0.194l0.428,0.712l1.597-0.669
	l1.367-1.31l0.842-0.555l0.302,1.048l0.65,1.53l0.543,1.456l-0.632,0.765l1.038,0.68l0.632,0.705l1.416,0.309l0.5,0.398l0.073,1.043
	l0.718,0.156l0.249,0.468l-0.321,1.409l-0.831,0.472l-0.821,0.428l-1.746,0.451l-1.529,1.04l-1.725,0.204l-2.012-0.272l-1.481-0.022
	l-1.055,0.09l-1.098,0.908l-1.423,0.569l-1.947,1.667l-1.517,1.193l0.9-0.229l2.125-1.672l2.392-1.049l1.532-0.114l0.677,0.615
	l-1.174,0.845l-0.064,1.375l0.061,0.965l1.135,0.646l1.719-0.185l1.387-1.449l-0.164,0.919l0.495,0.483l-1.443,0.831l-2.418,0.763
	l-1.16,0.533l-1.374,0.928l-0.742-0.116l0.248-1.089l2.027-1.041l-1.609,0.023l-1.174,0.162l0.069,0.416l-1.266,0.625l-1.182,0.44
	l-1.172,0.394l-0.816,0.836l-0.167,0.209l-0.224,0.698l0.192,0.676l0.396,0.047l0.017-0.49l0.217,0.303l-0.17,0.373l-0.759,0.21
	l-0.471-0.047l-0.803,0.233l-0.464,0.07l-0.65,0.07l-0.955,0.374l1.593-0.257l0.23,0.257l-1.549,0.374l-0.64,0.023l0.043-0.164
	l-0.391,0.351l0.28,0.07l-0.468,0.936l-1.001,0.984l0.009-0.328l-0.207-0.07l-0.252-0.328l0.006,0.703l0.203,0.234l-0.086,0.493
	l-0.467,0.516l-0.858,1.034l-0.064-0.047l0.522-0.893l-0.403-0.493l0.165-1.079l-0.333,0.563l-0.021,0.821l-0.592-0.188l0.577,0.399
	l-0.27,1.245l0.28,0.094l0.006,0.447l-0.157,1.317l-0.869,0.966l-1.193,0.377l-0.864,0.777l-0.557,0.094l-0.643,0.472l-0.254,0.448
	l-1.379,0.849l-0.75,0.613l-0.67,0.778l-0.35,0.92l0.002,0.92l0.122,1.133l0.327,0.92l-0.107,0.566l0.231,1.51l-0.197,0.896
	l-0.125,0.496l-0.41,0.802l-0.342,0.166l-0.526-0.142l-0.057-0.59l-0.378-0.307l-0.39-1.109l-0.32-1.015l-0.057-0.519l0.399-0.85
	l-0.166-0.731l-0.631-1.086l-0.343-0.212l-1.211,0.59l-0.179-0.071l-0.417-0.59l-0.587-0.33l-1.276,0.165l-0.898-0.142l-0.829,0.071
	l-0.508,0.189l0.109,0.377l-0.115,0.519l0.137,0.26l-0.235,0.189l-0.342-0.212l-0.484,0.259l-0.767-0.047l-0.624-0.685l-1.008,0.165
	l-0.706-0.307l-0.682,0.094l-1.003,0.307l-1.196,0.967l-1.181,0.566l-0.768,0.637l-0.366,0.59l-0.196,0.897l-0.097,0.637
	l0.107,0.425l-0.005,0.023l-0.624,1.132l-0.384,0.943l-0.414,1.768l-0.234,0.636l0.072,0.707l0.247,0.636l0.029,1.013l0.597,0.989
	l0.126,0.729l0.34,0.659l1.107,0.33l0.399,0.564l1.009-0.376l0.857-0.141l0.87-0.235l0.747-0.212l0.753-0.541l0.388-0.753
	l0.245-1.107l0.256-0.376l0.809-0.354l1.193-0.283l0.987,0.023l0.688-0.094l0.195,0.283l-0.131,0.612l-0.709,0.777l-0.353,0.8
	l0.166,0.236l-0.236,0.564l-0.414,1.012l-0.236-0.33l-0.242,0.023l-0.025,0.188h0.199l-0.046,0.353l-0.271,0.565l0.093,0.211
	l-0.178,0.471l0.065,0.117l-0.239,0.659l-0.241,0.353l-0.206,0.047l-0.292,0.447l0.374,0.235l0.101-0.188l0.302,0.165l0.115,0.047
	l0.266-0.235l0.323-0.023l0.107,0.118l0.168-0.071l0.507,0.118l0.523-0.023l0.376-0.141l0.138-0.165l0.353,0.071l0.229,0.094
	l0.323-0.023l0.213-0.118l0.5,0.188l0.158,0.023l0.335,0.235l0.288,0.306l0.381,0.188l0.245,0.352l-0.094,0.141l-0.108,0.282
	l0.072,0.493l-0.281,0.423l-0.17,0.54l-0.091,0.564l0.01,0.352l-0.01,0.587l-0.171,0.117l-0.167,0.563l0.053,0.352l-0.267,0.329
	l0.054,0.352l0.146,0.211l0.231,0.704l0.408,0.516l0.488,0.563l0.375,0.469l-0.058,0.281l0.441,0.047l0.126-0.094l0.305,0.305
	l0.53-0.094l0.503-0.329l0.701-0.258l0.386-0.375l0.641,0.07l-0.047,0.118l0.602,0.047l0.471,0.234l0.382,0.375l0.383,0.375
	l0.563,0.047l0.898-0.915l0.492-0.141l0.025-0.422l0.27-1.103l0.685-0.61l0.686-0.023l0.14-0.282l0.838,0.118l0.93-0.657
	l0.464-0.305l0.606-0.61l0.357,0.07l0.297,0.352l-0.271,0.423l-0.061,0.305l-0.655,0.165l0.324,0.586l-0.042,0.681l-0.527,0.751
	l0.346,1.055l0.489-0.094l0.292-0.938l-0.295-0.469l-0.021-0.986l1.442-0.516l-0.12-0.634l0.43-0.399l0.342,0.916l0.763,0.023
	l0.68,0.728l0.016,0.422l1.006,0.023l1.217-0.141l0.612,0.587l0.838,0.164l0.667-0.422l0.018-0.329l1.374-0.07l1.371-0.023
	l-0.988,0.399l0.372,0.61l0.882,0.094l0.817,0.633l0.115,1.055l0.606-0.023l0.432,0.305l0.708,0.469l0.656,0.844l0.018,0.68
	l0.403,0.023l0.587,0.633l0.432,0.469l1.368,0.258l0.087-0.234l0.933-0.094l1.204,0.352l0.361,0.141l0.842,0.305l1.15,1.102
	l0.193,0.539l0.365-0.07l0.272,0.727l0.622,2.272l0.565,0.211l0.036,0.891l-0.854,1.077l0.365,0.398l1.985,0.211l0.044,1.288
	l0.848-0.843l1.419,0.469l1.867,0.796l0.572,0.75l-0.196,0.727l1.333-0.398l2.192,0.68l1.66-0.047l1.671,1.077l1.476,1.453
	l0.855,0.375l0.972,0.07l0.411,0.398l0.392,1.664l0.217,0.773l-0.395,2.157l-0.542,0.868l-1.518,1.807l-0.673,1.479l-0.801,1.127
	l-0.28,0.023l-0.241,0.963l0.193,2.443l-0.216,1.999l-0.071,0.87l-0.329,0.518l-0.093,1.741l-0.998,1.719l-0.102,1.343l-0.829,0.565
	l-0.216,0.778h-1.185l-1.694,0.519l-0.7,0.565l-1.186,0.401l-1.2,1.037l-0.773,1.298l-0.094,0.967l0.275,0.731l-0.048,1.321
	l-0.16,0.638l-0.691,0.731l-0.909,2.313l-0.787,1.038l-0.646,0.613l-0.318,1.25l-0.58,0.73l-0.331,0.825l-1.066,0.73l-0.844-0.259
	l-0.549,0.141l-1.087-0.565l-0.68,0.048l-0.773-0.73l0.04,0.683l1.529,1.131l0.004,0.895l0.783,0.564l0.038,0.635l-0.667,1.691
	l-1.447,0.681l-2.008,0.281l-1.193-0.141l0.394,0.797l-0.017,0.96l0.331,0.654l-0.491,0.468l-1.041,0.163l-1.075-0.467l-0.328,0.35
	l0.455,1.283l0.762,0.396l0.492-0.42l0.457,0.676l-0.863,0.396l-0.607,0.813l0.188,1.298l-0.079,0.671h-0.948l-0.619,0.67
	l-0.019,0.968l1.274,0.92l1.01,0.252l0.005,1.146l-0.965,0.73l-0.187,1.479l-0.729,0.499l-0.234,0.588l0.742,1.285l0.915,0.741
	l-0.442-0.067l-0.883-0.022l-0.346,0.313l-0.716,0.447l0.242,1.159l-0.373,0.022l-1.257-0.4l-1.434-0.87l-1.444-0.694l-0.604-0.786
	l0.013-0.744l-0.792-0.836l-0.891-2.159l0.026-1.211l0.763-0.986l-1.671-0.367l0.623-1.128l-0.32-2.15l1.271,0.463l-0.204-2.67
	l-0.798-0.35l0.117,1.605l-0.672-0.163l-0.188-1.862l-0.304-2.406l0.261-0.89l-0.614-1.267l-0.425-1.456l0.405-0.047l0.163-2.117
	l0.315-2.096l0.028-1.957l-0.605-1.958l0.111-1.086l-0.399-1.604l0.355-1.604l-0.203-2.549l-0.035-2.712l-0.022-2.922l-0.332-2.144
	l-0.439-1.836l-1.195-0.753l-0.135-0.541l-2.329-1.316l-2.136-1.41l-0.957-0.822l-0.536-1.081l0.129-0.376l-1.061-1.714
	l-1.296-2.394l-1.203-2.604l-0.475-0.586l-0.41-0.962l-0.886-0.844l-0.831-0.539l0.342-0.563l-0.608-1.242l0.338-0.914l0.871-0.82
	l0.588-0.983l-0.252-0.563l-0.436,0.609l-0.657-0.586l0.198-0.352l-0.174-1.194l0.363-0.188l0.2-0.82l0.446-0.844l-0.079-0.515
	l0.609-0.281l0.773-0.516l-0.118-0.398l0.406-0.117l-0.033-0.633l0.25-0.492l0.568-0.07l0.501-0.819l0.42-0.68l-0.396-0.328
	l0.223-0.75L91.4,98.024l0.254-0.328l-0.119-1.102l-0.455-0.703l-0.346-0.375l-0.208-0.703l0.301-0.352l-0.279-0.071l-0.178-0.445
	l-0.545-0.352l-0.488,0.071l-0.269,0.469l-0.462,0.329l-0.245,0.047l-0.135,0.258l0.49,0.703l-0.291,0.165l-0.172,0.211
	l-0.527,0.047l-0.165-0.774l-0.173,0.234l-0.358-0.094l-0.175-0.516l-0.48-0.094l-0.275-0.141h-0.484l-0.056,0.281l-0.111-0.188
	l-0.589-0.305l-0.228-0.258l0.175-0.234l-0.023-0.282l-0.303-0.328l-0.427-0.258l-0.393-0.164l-0.016-0.375l-0.307-0.235
	l0.055,0.375l-0.223,0.328l-0.257-0.375l-0.355-0.118l-0.144-0.258l0.069-0.399l0.151-0.422l-0.308-0.188l0.3-0.235l-0.37-0.422
	l-0.481-0.516l-0.205-0.446l-0.446-0.422l-0.47-0.587l0.138-0.188l0.144,0.188l0.089-0.094l-0.164-0.399l-0.311-0.118l-0.149,0.306
	l-0.641-0.024l-0.391-0.117l-0.458-0.258l-0.593-0.094l-0.293-0.282l-0.541-0.211l-0.68-0.023l-0.495-0.258l-0.544-0.54l-1.124-1.41
	l-0.51-0.423l-0.88-0.329l-0.612,0.094l-0.939,0.47l-0.578,0.141l-0.757-0.353l-0.811-0.235l-0.96-0.611l-0.814-0.188l-1.158-0.588
	l-0.828-0.635l-0.228-0.353l-0.628-0.07L63.89,81.45l-0.386-0.588l-1.073-0.753l-0.418-0.824l-0.128-0.636l0.378-0.118l-0.052-0.377
	l0.337-0.33l0.082-0.448l-0.287-0.589l0.024-0.542l-0.227-0.66l-0.723-1.296l-0.886-1.014l-0.329-0.826l-0.819-0.542l-0.125-0.307
	l0.346-0.802l-0.474-0.307l-0.509-0.637l-0.041-0.92l-0.516-0.118l-0.483-0.685l-0.335-0.637l0.071-0.401l-0.306-0.991l-0.095-1.015
	l0.185-0.496l-0.616-0.519l-0.4,0.047l-0.47-0.354l-0.359,0.542l0.009,0.613l-0.214,0.991l0.232,0.543l0.564,0.896l0.071,0.307
	l0.13,0.094l0.035,0.448l0.201-0.023l0.009,0.85l0.227,0.33l0.114,0.472l0.5,0.661l0.096,1.227l0.182,0.566l0.174,0.613
	l-0.119,0.708l0.501,0.047l0.345,0.59l0.269,0.589l-0.088,0.235l-0.572,0.472h-0.197l-0.109-0.801l-0.547-0.755l-0.646-0.636
	l-0.476-0.331l0.258-0.943l-0.027-0.708l-0.406-0.425l-0.603-0.566l-0.198,0.166l-0.185-0.354l-0.586-0.307l-0.428-0.755
	l0.109-0.118l0.411,0.071l0.554-0.472l0.198-0.59l-0.595-0.944l-0.521-0.354l-0.149-0.826l-0.174-0.85l-0.139-1.062L53.377,62.8
	l0.061-0.66l-0.44-0.754l-0.442-0.165l0.014-0.377l-0.588-0.07l-0.259-0.354l-0.952-0.118l-0.192-0.212l0.14-0.707l-0.539-1.318
	l-0.16-1.834l0.15-0.282l-0.31-0.446l-0.344-1.079l0.308-1.078l-0.255-0.702l0.702-1.075l0.473-1.12l0.162-0.978l0.958-1.231
	l1.407-2.314l0.716-1.727l0.254-1.078l0.039-0.595l0.282-0.251l1.196,0.435L55.661,43.9l0.422-0.321l0.384-1.053l0.242-1.027
	l-0.13-0.022l-1.225-1.228l-0.391-0.544l-1.457-0.52l0.148-1.104l0.583-0.764l-0.88-0.538l0.479-1.004l-0.585-0.889l0.437-0.642
	l-0.196-0.464l-0.596-0.375l0.492-1.076l-0.505-0.983l0.339-1.129l-0.808-0.086L50.95,30.11l-0.838-0.346l-0.905-1.248l-0.722-0.214
	l-1.271-0.428l-1.35,0.107l-1.345-0.555l-0.642-0.51l-1.215,0.255l-0.565,0.832l-0.554,0.064l-1.288,0.257l-1.189,0.407
	l-1.208,0.236l0.474-0.687l1.451-1.173l1.315-0.361l0.006-0.296l-1.75,0.658l-1.341,0.789l-2.099,0.856l0.152,0.581l-1.61,0.842
	l-1.464,0.521l-1.267,0.369l-0.69,0.523l-2.007,0.634l-0.796,0.57l-1.544,0.527l-0.591-0.11l-1.158,0.353l-1.354,0.419l-1.131,0.398
	l-1.923,0.354l-0.001-0.199l1.563-0.575l1.251-0.375l1.565-0.66l1.329-0.154l0.916-0.504l1.92-0.721l0.414-0.24l1.093-0.435
	l0.977-0.911l1.09-0.69l-1.383,0.345l-0.125-0.194l-0.895,0.432l-0.052-0.604l-0.663,0.431l0.22-0.604l-1.375,0.474h-0.569
	l0.563-0.71l0.571-0.429l-0.158-0.428l-1.454,0.235l-0.225-0.556l-0.336-0.298l0.652-0.659l-0.213-0.508l1.044-0.675l1.415-0.651
	l0.927-0.586l0.798-0.083l0.422,0.188l1.32-0.563l0.539,0.104l1.06-0.375l0.372-0.519l-0.299-0.207l1.144-0.454l-0.564,0.021
	l-1.218,0.248l-0.516,0.249l-0.444-0.249l-1.379,0.124l-1.024-0.269l0.107-0.453l-0.391-0.657l1.777-0.49l2.561-0.55h0.723
	l-0.749,0.57l1.907-0.041l0.047-0.712l-0.597-0.425l0.007-0.565l-0.285-0.462l-0.763-0.361l1.135-0.579l1.556-0.04l1.649-0.497
	l0.834-0.534l1.474-0.532l0.988-0.118l2.146-0.489l0.696,0.078l1.921-0.565l1.02,0.214l0.082,0.488l0.583-0.195l1.356,0.059
	l-0.343,0.254l1.111,0.176l0.957-0.098l1.434,0.334l1.51,0.098l0.475,0.158l1.312-0.177l0.958,0.315l0.788,0.158l1.305,0.257
	l0.827,0.536l0.797,0.1l1.176-0.457l1.365-0.337l1.142,0.119l1.731-0.474l1.63-0.276l0.189,0.454l0.847-0.257l0.656-0.511
	l0.499,0.118l0.54,0.986l1.801-0.75l-0.645,0.829l1.198-0.178l0.613-0.316l0.987,0.059l0.878,0.475l1.664,0.397l1.023,0.179
	l0.911-0.06l0.695,0.559l-1.654,0.562l1.382,0.221l2.427-0.121l0.898-0.201l0.405,0.664l1.384-0.563l-0.555-0.461l0.843-0.38
	l1.094-0.06l0.753-0.1l0.518,0.26l0.431,0.601l1.02-0.081l1.17,0.502l1.463-0.181l1.231,0.02l0.371-0.682l0.909-0.2l1.075,0.38
	l-0.689,1.046l1.11-0.886l0.688,0.041l1.107-1.119l-0.455-0.694l-0.679-0.434l0.899-1.194l1.558-0.795l0.985,0.174l0.505,0.485
	l0.335,1.212l-1.126,0.552l1.45,0.218l-0.752,1.134l1.723-0.876l0.57,0.717l-0.78,0.821l0.382,0.766l1.394-0.827l1.211-0.94
	l0.763-1.209l1.173,0.079l1.16,0.158l0.812,0.555l-0.245,0.538l-0.99,0.6l0.295,0.583l-0.427,0.545l-2.133,0.792l-1.332,0.183
	l-0.716-0.346l-0.579,0.57l-1.404,0.963l-0.535,0.494l-1.469,0.786l-1.32,0.063l-0.995,0.499l-0.494,0.751l-1.121,0.146
	l-1.648,0.945l-1.742,1.333l-0.878,0.916l-0.803,1.394l1.233,0.194l-0.157,1.125l-0.032,0.913l1.442-0.24L94.544,31.74z
	 M28.208,14.9l0.198-0.058l0.666,0.02l0.819,0.292l-0.265,0.156l-1.208,0.253l-1.191,0.078L28.208,14.9z M329.274,15.264
	l0.498,0.377l0,0l-0.831,0.059l-0.611-0.352l0.462-0.447L329.274,15.264z M28.208,14.901L28.208,14.901l-0.483,0.363L28.208,14.901z
	 M96.823,17.533l-0.778,0.378l-0.94-0.338l-0.759,0.119l-0.82-0.497l0.972-0.336l0.914-0.473l0.694,0.315l0.383,0.197l0.109,0.198
	L96.823,17.533z M24.583,17.692l1.056,0.839l0.936,1.107l-0.931,0.709l0.265,0.285l0.788-0.833l2.16,0.162l0.522,1.058l-1.462,0.511
	l-1.575,0.103l-1.271,1.132l-0.605,0.228l-0.811-0.021l-0.241-0.414l-0.774-0.33l0.344-0.494l-0.675-0.185l-1.151,0.144l-0.05-0.389
	l0.698-0.429l-1.358,0.265l-0.218,0.533l-1.088,0.493L24.583,17.692z M113.296,19.375l-0.729,0.323l-1.001,0.061l0.067-0.545
	l0.703-0.623l0.891-0.16l0.484,0.321l-0.208,0.462L113.296,19.375z M165.831,20.489l-0.292,0.734l0.911,0.779l-1.229,0.866
	l-2.653,0.788l-0.798,0.208l-1.141-0.167l-2.463-0.354l0.973-0.518l-1.868-0.557l1.596-0.227l0.016-0.329l-1.8-0.267l0.717-0.735
	l1.352-0.183l1.248,0.775l1.408-0.613l1.065,0.327l1.488-0.611L165.831,20.489z M104.326,22.023l0.745,0.392l0.837,0.351
	l-0.217,0.539l0.718-0.083l0.441,0.395l-0.987,0.354l-1.247-0.271l-0.241-0.52l-1.189,0.603l-1.616,0.605l0.081-0.688l-1.294,0.125
	l1.094-0.582l0.622-0.889l0.876-1.047l0.587,0.082l-0.127,0.513l0.579-0.185L104.326,22.023z M24.965,23.533l0.299,0.229
	l0.683-0.125l0.405,0.312l0.717,0.146l-0.198,0.125l-0.946,0.25l-0.413-0.25l-0.132-0.208l-0.843,0.063l-0.113-0.104L24.965,23.533z
	 M102.6,25.079l0.922-0.524h1.232l-0.118,0.23l-1.406,0.651l-0.598-0.042L102.6,25.079z M105.7,25.52l0.502-0.357l0.38,0.021
	l0.104,0.252l-0.657,0.612l-0.342-0.106l-0.085-0.358L105.7,25.52z M25.594,27.511l0.623,0.106l-0.36,0.47l-0.764,0.171
	l-0.389-0.214l-0.248-0.32L25.594,27.511z M176.535,32.901l0.914,1.565l0.655,0.199l0.588,1.4l0.279,0.491l1.152,0.246l-0.099,0.784
	l-0.489,0.382l0.391,0.63l-0.878,0.654h-1.308l-1.699,0.339l-0.457-0.249l-0.646,0.588l-0.918-0.136l-0.685,0.476l-0.526-0.25
	l1.48-1.311l0.885-0.271l-1.542-0.225l-0.269-0.495l1.024-0.381l-0.509-0.672l0.193-0.803l1.457,0.111l0.149-0.712l-0.643-0.776
	l-1.167-0.221l-0.232-0.332l0.358-0.551l-0.3-0.33l-0.53,0.572l0.001-1.187l-0.457-0.612l0.379-1.241l0.736-0.974l0.769,0.086
	l1.108-0.108l-1.035,1.299l0.982-0.152h1.012l-0.249,0.979l-0.867,1.095L176.535,32.901z M35.21,30.392l0.532,0.087l0.089,0.369
	l-1.31,0.588l-1.337,0.458l-0.216-0.306l0.35-0.566l1.219-0.434L35.21,30.392z M190.221,32.659l0.348,0.593l-0.519,0.993
	l-1.038-0.684l-0.167-0.506L190.221,32.659z M171.269,33.848l0.792-0.044l1.008,0.751l-0.544,0.843l0.146,0.891l-0.768,1.096
	l-1.746,0.741l-1.396-0.18l0.866-1.3l-0.461-1.271l1.357-0.954L171.269,33.848z M316.155,35.598l1.217,1.205l0.818,1.211
	l1.257,1.263l2.493,2.246l-1.73-0.41l0.559,1.825l1.781,1.307l0.508,0.897l-1.232-0.782l-0.06,0.99l-0.828-1.082l-0.651-1.238
	l-0.972-1.371l-0.404-0.956l-1.044-1.676l-1.445-1.239l-1.076-1.679l0.449-0.579l-0.803-0.578l0.318-0.177L316.155,35.598z
	 M50.931,35.198l1.01-0.111l-1.219,1.403l0.18,1.007h-0.385l-0.215-0.583l0.021-0.559l-0.218-0.402l0.189-0.534l0.308-0.399
	L50.931,35.198z M124.119,38.577l-0.74,0.79l-0.925,1.087l0.746-0.408l0.604,0.272l-0.466,0.432l0.804,0.341l0.501-0.295
	l0.902,0.386l-0.506,0.912l0.729-0.205l-0.013,0.662l0.102,0.801l-0.652,1.125l-0.48,0.046l-0.593-0.253l0.457-1.032l-0.25-0.161
	l-1.414,1.101l-0.603-0.046l0.864-0.597l-0.9-0.298l-1.096,0.068l-1.932-0.045l-0.049-0.367l0.729-0.457l-0.34-0.343l1.057-0.752
	l1.536-2.019l0.832-0.722l0.96-0.428l0.438,0.067L124.119,38.577z M54.831,40.295l0.157,0.59l0.701,0.523v0.707l-0.589,0.16
	l-1.327-0.57l-0.04-0.433l-0.628-0.455l0.035-0.363l-0.86-0.227l0.018-0.68l0.249-0.294l0.896,0.271l0.48,0.204l0.84,0.136
	L54.831,40.295z M114.836,40.386l0.389-0.113l1.221,0.317l0.841,0.545l-0.028,0.228l-0.506,0.023l-1.166-0.41L114.836,40.386z
	 M114.304,43.992l0.192,0.621l0.681,0.161l0.948-0.023l-0.64,0.506l-0.387,0.092l-1.122-0.553l-0.141-0.414L114.304,43.992z
	 M325.81,47.916l0.427-0.533l1.041,1.438l-1.316,0.349l-0.218,1.304l-2.063-0.885l0.183,1.398l-1.138,0.023l-0.816-1.281l-0.02-1
	l1.029-0.07l-0.704-1.785l-0.246-0.994l1.942,1.341l1.057,0.44L325.81,47.916z M187.453,49.658l0.646-0.512l0.225,1.117
	l-0.299,1.003l-0.49-0.257l-0.251-0.886L187.453,49.658z M326.254,54.12l-0.314,1.313l0.614,1.339l0.093,1.058l0.429,0.635
	l-0.131,0.941l-1.08,0.613l-1.842,0.07l-0.935,1.508l-0.929-0.519l-0.418-0.966l-1.722,0.283l-1.026,0.612l-1.216,0.024l1.435,0.966
	l0.065,2.217l-0.5,0.566l-0.68-0.519l-0.144-1.179l-0.827-0.377l-0.747-0.896l0.85-0.401l0.264-0.825l0.806-0.684l0.407-0.895
	l1.938-0.377l1.248,0.259l0.106-2.329l0.997,0.635l0.926-1.316l0.377-0.493l-0.077-1.594l-0.909-1.474L323.31,51.5l0.995-0.233
	l1.47,1.799L326.254,54.12z M187.487,51.896l0.507-0.42l0.665,0.935l-0.092,1.709l-0.489-0.07l-0.399,0.422l-0.385-0.328
	l-0.122-1.592l-0.244-0.724L187.487,51.896z M193.922,55.48l0.822-0.118l-0.326,1.01l0.172,0.423l-0.195,0.658l-0.817-0.494
	l-0.536-0.141l-1.501-0.658l0.123-0.657l1.211,0.117L193.922,55.48z M206.32,59.194l-0.123,0.377l-1.517,0.118l0.022-0.212
	l-1.313-0.259l0.149-0.565l0.604,0.447l0.832-0.071l0.769,0.094l0.017,0.212L206.32,59.194z M214.363,59.265l0.1,0.235l0.048,0.094
	l-1.015,0.542l-0.55-0.165l-0.317-0.518l0.526-0.071h0.076l0.122-0.306l0.764,0.024l0.91-0.4L214.363,59.265z M319.446,61.598
	l0.27-0.801l0.676,0.165l0.248-0.542l0.875,0.283l0.328,0.448l-0.316,0.778l-0.583-0.424l-0.459,0.307l0.021,0.778l-0.83-0.377
	L319.446,61.598z M94.015,69.997l0.759,0.59l-0.354,0.944l-0.169-0.165l0.115-0.684l-0.38-0.52L94.015,69.997z M92.667,70.328
	l0.525-0.095l0.696,0.047l-0.018,0.331l-1.211,0.212L92.667,70.328z M311.668,73.465l-0.177,2.098l-0.234,1.084l-0.798-1.107
	l-0.379-0.966l0.36-1.297l0.619-0.991l0.612,0.401L311.668,73.465z M93.178,72.403l0.307,0.047l0.221,1.085l-0.119,0.778
	l-0.283,0.047l-0.16-0.754l-0.334-0.377L93.178,72.403z M88.306,75.044l0.894,0.094l0.865,0.024l0.96,0.448l0.365,0.471l1.049-0.142
	l0.352,0.307l0.838,0.801l0.594,0.589h0.357l0.641,0.259l-0.128,0.377l0.788,0.047l0.767,0.542l-0.157,0.306l-0.775,0.165
	l-0.725,0.071l-0.741-0.118l-1.608,0.141l0.808-0.73l-0.391-0.353l-0.702-0.094l-0.307-0.377l-0.177-0.73l-0.641,0.047l-0.98-0.354
	l-0.276-0.283l-1.397-0.188l-0.357-0.259l0.485-0.33l-1.096-0.071l-0.895,0.683l-0.439,0.024l-0.205,0.306l-0.576,0.142
	l-0.458-0.118l0.655-0.4l0.311-0.471l0.558-0.283l0.594-0.259l0.852-0.141L88.306,75.044z M3.36,76.317l-0.048,0.306l-0.199,0.142
	l-0.289-0.236l0.067-0.094l0.239-0.142L3.36,76.317z M4.637,76.977l0.092,0.094l0.2,0.424l-0.099,0.071h-0.08l-0.344-0.047
	l-0.074-0.306l-0.026-0.047L4.637,76.977z M5.869,77.684l-0.078,0.142l-0.588-0.024l0.124-0.165L5.869,77.684z M6.557,78.226
	L6.395,78.39l-0.382,0.094l-0.124-0.283l-0.088-0.118l0.019-0.07l0.15-0.118l0.319,0.142L6.557,78.226z M6.96,79.12l0.169,0.118
	l0.157,0.165l0.162,0.471l-0.057,0.071l-0.507,0.282L6.48,80.415L6.265,80.65l-0.233-0.188l0.131-0.376L6.12,79.615l0.075-0.141
	l0.252-0.212l-0.014-0.259l0.07-0.118l0.113,0.023L6.96,79.12z M299.752,81.591l-0.986-0.423l-0.185-1.106l0.411-0.612l1.169-0.353
	l0.64,0.023l0.328,0.495l-0.374,0.588l-0.151,0.753L299.752,81.591z M99.302,79.591l0.144-0.212h0.875l0.599,0.33l0.321-0.024
	l0.147,0.471l0.6-0.024l-0.081,0.377l0.473,0.047l0.506,0.494l-0.451,0.518l-0.529-0.282l-0.483,0.047l-0.354-0.047l-0.224,0.235
	l-0.446,0.07l-0.127-0.306l-0.418,0.188l-0.531,0.894l-0.258-0.211l0-0.376l-0.735-0.212l-0.529,0.094l-0.665-0.118l-0.547,0.259
	l-0.554-0.4l0.167-0.423l0.978,0.165L98,81.262l0.432-0.306l-0.415-0.564l0.057-0.495l-0.694-0.188l0.323-0.377l0.667,0.071
	L99.302,79.591z M92.627,81.191l0.744,0.118l0.521,0.33l0.16,0.353l-0.761,0.024l-0.383,0.211l-0.575-0.211l-0.584-0.471
	l0.155-0.306l0.489-0.094L92.627,81.191z M105.145,81.168l0.546,0.118l0.174,0.259l-0.311,0.33h-0.838l-0.683,0.047l0.016-0.564
	l0.178-0.188H105.145z M313.98,81.544l-0.063,0.541l0.522,0.941l-0.102,1.082l-0.569,0.447l-0.042,1.034l0.434,1.057l0.581,0.141
	l0.498-0.165l1.467,0.728l0.015,0.705l0.401,0.305l-0.042,0.61l-0.966-0.634l-0.491-0.681l-0.219,0.47l-0.826-0.775l-0.979,0.188
	l-0.6-0.282l-0.034-0.541l0.315-0.329l-0.364-0.306l-0.095,0.47l-0.668-0.751l-0.243-0.564l-0.235-1.27l0.51,0.447l-0.215-2.046
	l0.151-1.176h0.678l0.741,0.353l0.299-0.33L313.98,81.544z M313.435,88.76l-0.73-1.01l0.97,0.047l0.463,0.47l-0.143,1.127
	L313.435,88.76z M318.709,89.464l0.492,1.455l-0.885-0.352l0.05,0.446l0.367,0.798l-0.492,0.305l-0.139-0.938l-0.368-0.047
	l-0.25-0.798l0.655,0.094l-0.058-0.493l-0.805-0.986l1.089,0.023L318.709,89.464z M314.959,90.426l-0.23-0.61l0.689,0.399h0.725
	l0.061,0.54l-0.463,0.563l-0.684,0.399l-0.104-0.61L314.959,90.426z M311.284,93.171l-1.39,1.243l0.49-0.915l0.736-0.797
	l0.558-0.915l0.47-1.291l0.313,1.056l-0.654,0.727L311.284,93.171z M315.761,92.303l0.244-0.375l0.038-0.798l0.637-0.07l-0.11,0.868
	l0.713-1.244l0.013,1.244l-0.36,0.422l-0.285,0.821l-0.289,0.375l-0.768-0.891L315.761,92.303z M109.468,91.294l0.653-0.164
	l0.239,0.047l-0.089,0.962l-0.934,0.141l-0.196-0.117l0.34-0.352L109.468,91.294z M270.265,95.516l-0.1,1.336l-0.47,0.375
	l-0.959,0.305l-0.567-1.031l-0.292-1.875l0.403-2.111l0.811,0.727l0.578,0.915L270.265,95.516z M320.225,94.344l0.151,0.868
	l0.136,0.727l-0.282,1.195l-0.536-1.336l-0.478,0.68l0.425,0.938l-0.288,0.609l-1.338-0.75l-0.385-0.938l0.28-0.609l-0.734-0.633
	l-0.322,0.54l-0.529-0.047l-0.797,0.727l-0.188-0.375l0.362-1.102l0.658-0.352l0.563-0.493l0.453,0.586l0.818-0.352l0.151-0.586
	l0.763-0.047l-0.136-1.008l0.948,0.633l0.181,0.657L320.225,94.344z M301.833,102.688l0.857,0.445l0.847-0.234l0.221-1.102
	l0.479-0.257l1.329-0.281l0.776-1.031l0.535-0.82l0.424-0.492l0.897-0.703l0.841-0.914l0.504-1.008h0.444l0.607,0.656l0.073,0.563
	l0.788,0.352l0.951,0.398l-0.056,0.516l-0.766,0.07l0.231,0.633l-0.792,0.445l-0.606,1.172l0.841,1.218l-0.19,0.609l1.312,1.195
	l-1.335,0.164l-0.401,0.89l0.077,1.172l-1.104,0.89l-0.064,1.289l-0.465,1.991l-0.187-0.445l-1.275,0.586l-0.418-0.797l-0.807-0.07
	l-0.555-0.421l-1.35,0.468l-0.387-0.632l-0.73,0.07l-0.927-0.164l-0.128-1.734l-0.563-0.352l-0.518-1.124l-0.162-1.148l0.112-1.194
	L301.833,102.688z M295.896,106.717l0.191,0.914l0.393,0.727l0.808,0.094l0.547,0.844l-0.333,1.616l-0.128,2.016l-1.255,0.023
	l-0.92-1.102l-1.376-1.055l-0.461-0.797l-0.822-1.054l-0.548-0.984l-0.831-1.804l-0.97-1.102l-0.37-1.101l-0.416-1.031l-1.026-0.82
	l-0.592-1.101l-0.87-0.727l-1.223-1.453l-0.147-0.656l0.729,0.047l1.75,0.258l1.059,1.266l0.878,0.891l0.662,0.539l1.083,1.405
	l1.134,0.023l0.944,0.891l0.656,1.077l0.894,0.609l-0.489,1.055l0.645,0.445L295.896,106.717z M322.4,102.477l0.095,0.703
	l0.65,0.117l0.129,0.539l-0.073,1.124l-0.567-0.117l-0.162,0.797l0.442,0.68l-0.325,0.141l-0.44-0.82l-0.331-1.663l0.229-1.031
	L322.4,102.477z M316.797,104.164l1.296-0.047l1.081-0.961l0.207,0.305l-0.879,1.288l-0.85,0.234l-1.095-0.234l-1.863,0.047
	l-0.972,0.188l-0.163,0.984l0.962,1.171l0.614-0.585l2.109-0.445l-0.086,0.586l-0.484-0.188l-0.495,0.772l-1.021,0.492l1.052,1.664
	l-0.218,0.468l0.951,1.5l-0.082,0.844l-0.588,0.398l-0.42-0.469l0.578-1.078l-1.116,0.516l-0.268-0.352l0.144-0.516l-0.781-0.75
	l0.16-1.288l-0.779,0.398l0.029,1.522l-0.047,1.875l-0.697,0.188l-0.465-0.398l0.38-1.195l-0.114-1.242l-0.485-0.023l-0.338-0.89
	l0.506-0.844l0.18-1.031l0.578-1.968l0.2-0.539l0.964-0.96l0.896,0.375L316.797,104.164z M337.085,108.686l1.914,0.891l2.034,0.749
	l0.737,0.656l0.612,0.656l0.115,0.773l1.807,0.797l0.229,0.703l-1.021,0.141l0.171,0.867l0.933,0.845l0.586,1.384l0.61-0.047
	l-0.105,0.586l0.862,0.211l-0.393,0.258l1.144,0.54l-0.168,0.375l-0.737,0.094l-0.241-0.328l-0.949-0.141l-1.104-0.211l-0.792-0.821
	l-0.566-0.728l-0.453-1.125l-1.4-0.586l-1.003,0.375l-0.728,0.445l0.066,0.961l-0.935,0.446l-0.621-0.234l-1.125-0.047l-0.903-1.079
	l-1.106-0.258l-0.317,0.375l-1.417,0.047l0.578-1.055l0.718-0.376l-0.178-1.406l-0.495-1.102l-2.085-1.102l-0.925-0.117
	l-1.648-1.195l-0.35,0.633l-0.45,0.117l-0.223-0.469l0.021-0.585l-0.83-0.633l1.188-0.469l0.81,0.023l-0.073-0.328l-1.659-0.023
	l-0.43-0.773l-1.009-0.234l-0.438-0.632l1.502-0.328l0.569-0.422l1.819,0.539l0.157,0.468l0.279,2.109l1.148,0.796l0.974-1.382
	l1.313-0.797h1.013l0.922,0.445l0.839,0.469L337.085,108.686z M350.111,110.067l0.426,0.422l0.087,0.656l-0.384,0.352l-0.16-0.773
	l-0.219-0.492l-0.508-0.422l-0.626-0.562l-0.796-0.375l0.334-0.328l0.596,0.375l0.354,0.281l0.474,0.305L350.111,110.067z
	 M323.999,108.943l1.204,0.375l0.368,1.007l-0.911-0.539l-0.927-0.117l-0.651,0.094l-0.768-0.047l0.267-0.726L323.999,108.943z
	 M321.122,110.231l-0.761-0.234l-0.183-0.562l1.136-0.07l0.269,0.444L321.122,110.231z M348.451,112.903l-0.629,0.305l-0.629,0.305
	h-0.566l-0.902-0.375l-0.622-0.352l0.107-0.398l0.998,0.188l0.615-0.117l0.24-0.609l0.165-0.047l0.036,0.703l0.653-0.094
	l0.353-0.445l0.675-0.469l-0.12-0.773l0.689-0.023l0.232,0.211l-0.081,0.727l-0.415,0.797l-0.612,0.094L348.451,112.903z
	 M352.378,112.247l0.304,0.305l0.506,0.82l0.49,0.445l-0.191,0.352l-0.335,0.141l-0.443-0.492l-0.421-0.844l-0.175-0.984
	l0.169-0.117L352.378,112.247z M329.146,114.286l-0.052-0.984l0.232-0.469l0.27-0.445l0.26,0.375l-0.081,0.633L329.146,114.286z
	 M300.327,113.653l0.135,0.469l2.134,0.141l0.274-0.539l2.024,0.609l0.35,0.845l1.68,0.234l1.315,0.773l-1.292,0.516l-1.209-0.539
	l-1.014,0.047l-1.163-0.094l-1.033-0.234l-1.256-0.516l-0.841-0.117l-0.455,0.164l-2.025-0.54l-0.168-0.563l-1.005-0.094
	l0.835-1.242l1.372,0.07l0.862,0.516L300.327,113.653z M354.877,114.45l0.406,0.422l-0.209,0.07l-0.497-0.305l-0.397-0.539
	l0.059-0.211L354.877,114.45z M357.582,115.74l0.197,0.422l0.013,0.258l-0.828-0.563l-0.559-0.469l-0.363-0.423l0.175-0.141
	l0.496,0.306L357.582,115.74z M314.559,116.42l0.736-0.117l1.048-0.469l-0.222,0.727l-1.728,0.375l-1.479-0.164l0.038-0.469
	l0.911-0.281L314.559,116.42z M311.105,116.186l0.696-0.117l0.236,0.563l-1.313,0.258l-0.783,0.188l-0.603-0.023l0.465-0.751h0.605
	l0.319-0.469L311.105,116.186z M318.597,116.865l0.148-0.305l0.992-0.281l0.771-0.047l0.377-0.164l0.39,0.164l-0.434,0.352
	l-1.221,0.563l-0.963,0.375l-0.822,0.985l-0.996,0.281l-0.104-0.164l0.125-0.446l0.558-0.773L318.597,116.865z M359.607,117.804
	l-0.19,0.234l-0.711-1.126l-0.116-0.773h0.363l0.287,1.032L359.607,117.804z M358.636,118.155l-0.446,0.023l-0.671-0.117
	l-0.176-0.211l0.104-0.516l0.741,0.211l0.331,0.258L358.636,118.155z M313.186,118.648l-1.404-0.915l1.07-0.234l0.53,0.375
	l0.365,0.399l-0.115,0.352L313.186,118.648z M359.941,118.953l0.261,0.446h-0.766l-0.331-0.821l0.641,0.328L359.941,118.953z
	 M313.384,147.375l-1.351,0.684l-1.021,0.283l-0.478,0.707l-0.566,0.519l-0.889,0.024l-0.73,0.117l-0.836-0.235l-0.815,0.142
	l-0.752,0.07l-0.888,0.684l-0.289-0.047l-0.667,0.377l-0.637,0.4l-0.784-0.048h-0.686l-0.861-0.824l-0.486-0.259l0.288-0.755
	l0.591-0.165l0.254-0.306l0.114-0.472l0.446-0.92l0.12-0.755l-0.174-1.345l0.059-0.731l0.255-0.756l-0.189-0.85l0.064-0.377
	l-0.321-0.543l0.11-1.015l-0.362-1.038l-0.017-0.566l0.369,0.566l-0.097-1.203l0.458,0.377l0.191,0.495l0.162-0.66l-0.302-1.038
	l-0.024-0.4l-0.145-0.401l0.288-0.755l0.31-0.33l0.301-0.659l0.042-0.755l0.63-0.942l-0.126,0.99l0.661-0.896l0.958-0.425
	l0.669-0.565l0.931-0.494l0.535-0.095l0.245,0.165l0.971-0.494l0.703-0.142l0.214-0.282l0.341-0.118l0.592,0.023l1.227-0.376
	l0.71-0.589l0.406-0.683l0.803-0.682l0.132-0.518l0.162-0.706l0.944-1.105l0.29,1.129l0.524-0.259l-0.293-0.635l0.464-0.635
	l0.431,0.306l0.282-1.011l0.698-0.635l0.358-0.517l0.593-0.212l0.055-0.376l0.501,0.142l0.044-0.306l0.509-0.188l0.589-0.188
	l0.714,0.611l0.529,0.751l0.678,0.024l0.703,0.117l-0.133-0.705l0.677-1.057l0.568-0.329l-0.155-0.329l0.584-0.751l0.745-0.47
	l0.541,0.165l0.999-0.259l0.043-0.657l-0.754-0.422l0.627-0.188l0.688,0.306l0.537,0.539l0.884,0.329l0.337-0.117l0.631,0.398
	l0.734-0.375l0.387,0.117l0.315-0.258l0.396,0.657l-0.377,0.681l-0.52,0.54l-0.368,0.047l0.044,0.517l-0.422,0.657l-0.502,0.635
	l0.02,0.376l0.764,0.705l0.767,0.423l0.521,0.447l0.656,0.775h0.32l0.496,0.329l0.083,0.399l0.989,0.447l0.808-0.447l0.373-0.682
	l0.312-0.588l0.294-0.729l0.503-1.034l-0.053-0.634l0.142-0.376v-0.752l0.307-0.963l0.242-0.282l-0.101-0.422l0.38-0.704
	l0.294-0.704l0.089-0.376l0.464-0.493l0.243,0.634l-0.028,0.821l0.26,0.165l-0.035,0.54l0.307,0.657l-0.033,0.751l-0.114,0.47
	l0.231,1.034l0.805-0.494l0.271,0.541l0.432,0.517l-0.226,0.588l0.034,1.104l0.072,0.658l0.247,0.164l0.053,1.105l-0.266,0.683
	l0.161,0.895l1.077,0.683l0.61,0.611l0.617,0.565l-0.241,0.33l0.425,0.824l0.059,1.413l0.519-0.306l0.28,0.565l0.329-0.188
	l-0.197,1.391l0.513,0.802l0.361,0.495l0.534,1.061l-0.03,1.062l-0.206,0.731l-0.36,0.826l0.116,1.109l-0.5,1.156l-0.424,0.613
	l-0.716,1.156l-0.258,0.756l-0.611,0.943l-0.96,1.203l-1.076,0.637l-0.818,1.014l-0.623,0.636l-0.812,1.131l-0.719,0.659
	l-0.726,0.988l-0.575,0.894l-0.117,0.399l-0.833,0.47l-1.191,0.047l-1.243,0.54l-0.73,0.493l-0.917,0.563l-0.575-0.586l-0.537-0.212
	l0.515-0.681l-0.677,0.235l-1.392,0.938l-0.732-0.352l-0.475-0.188l-0.558-0.094l-0.831-0.398l-0.313-0.799l0.252-0.987l0.022-0.658
	l-0.262-0.541l-0.967-0.142l0.608-0.636l0.129-0.966l-0.861,0.896l-1.05,0.235l0.832-0.73l0.495-0.754l0.635-0.636l0.3-0.967
	l-1.274,1.107l-0.865,0.448l-0.807,1.06l-0.622-0.541l0.316-0.707l-0.327-0.943l-0.352-0.495l0.307-0.307l-1.102-0.778l-0.716-0.047
	l-0.816-0.637l-1.97,0.118l-1.551,0.472l-1.35,0.448L313.384,147.375z M233.852,121.535l0.253,0.563l0.235,0.869l0.072,1.55
	l0.243,0.611l-0.12,0.635l-0.225,0.376l-0.353-0.753l-0.224,0.377l0.138,0.963l-0.118,0.564l-0.341,0.306l-0.117,1.105l-0.552,1.53
	l-0.697,1.789l-0.883,2.474l-0.601,1.838l-0.616,1.51l-0.934,0.307l-0.997,0.565l-0.595-0.354l-0.823-0.448l-0.251-0.707
	l0.021-1.155l-0.309-1.037l-0.004-0.943l0.271-0.942l0.533-0.235l0.031-0.424l0.59-0.989l0.14-0.848l-0.196-0.611l-0.145-0.824
	l-0.003-1.199l0.404-0.729l0.21-0.846l0.563-0.048l0.616-0.258l0.454-0.235l0.481-0.023l0.685-0.752l0.968-0.799l0.357-0.658
	l-0.132-0.54l0.475,0.141l0.649-0.893l0.08-0.798l0.391-0.587L233.852,121.535z M363.992,125.716l-0.087-0.353l0.204-1.01
	l0.441,0.399l-0.059,1.058l-0.245-0.165L363.992,125.716z M364.412,125.998l0.516,0.753l-0.402,0.188l-0.229-0.588L364.412,125.998z
	 M-21.568,126.233l0.224-0.07l-0.01,0.635l-0.063,0.07L-21.568,126.233z M-21.568,126.233L-21.568,126.233l0.151,0.635l0,0
	L-21.568,126.233z M378.417,126.868l-0.8,0.329l-0.748,0.282l-0.04-0.494l0.628-0.282l0.376-0.07l0.734-0.399L378.417,126.868z
	 M376.031,128.114l0.333-0.212l0.264,0.377l-0.336,0.682l-0.722,0.165l-0.601-0.142l0.072-0.588l0.512-0.446L376.031,128.114z
	 M361.125,132.774l0.672,0.825l0.378,0.589l-0.496,0.33l-0.525-0.354l-0.577-0.589l-0.51-0.707l-0.498-0.919l-0.037-0.447
	l0.471,0.023l0.514,0.447l0.352,0.448L361.125,132.774z M362.035,157.628l-0.849,0.701l-1.084,0.888l-1.109,0.514l0.024-0.327
	l-0.327-0.187l1.271-1.074l0.11-0.726l-0.811-0.515l0.317-0.469l1.014-0.445l0.775-1.009l0.444-0.846l0.031-0.87l0.167-0.234
	l-0.199-0.541l-0.226-1.153l0.016-0.919l0.479-0.118l0.198,0.73l0.628,0.33l-0.324,1.177l0.004,1.363l0.522-0.869l0.297,0.353
	l-0.405,0.987l0.587,0.422l0.661,0.095l0.89-0.493l0.447,0.141l-0.956,1.174l-0.753,0.75l-0.811-0.023l-0.504,0.398l-0.232,0.562
	L362.035,157.628z M351.69,162.15l1.326-0.674l1.028-0.675l1.092-0.955l0.577-0.326l0.639-0.724l1.082-0.607l-0.123,0.561
	l-0.1,0.514l1.066-0.514l-0.041,0.537l-0.357,0.56l-0.763,0.606l-1.275,0.931l-0.871,0.534l-0.056,0.627h-0.807l-1.174,0.487
	l-0.88,0.856l-1.488,1.293l-1.172,0.575l-0.754,0.345l-0.925-0.022l-0.357-0.414l-1.022-0.092l0.139-0.461l1.21-0.97l2.12-1.25
	l0.829-0.255L351.69,162.15z M331.239,158.587l0.546,0.093l-0.761,1.54l-0.579,0.442l-0.699,1.047l-0.171-0.349l-1.201,0.883
	l-0.181-0.069l-0.611-0.023l-0.002-1.115l0.323-0.862l0.002-1.119l0.342-0.584l0.609,0.117l0.771,0.443l0.657-0.187L331.239,158.587
	z M246.989,168.645l0.522,0.388l0.878,0.159l-0.045,0.25l-0.433,0.568l-1.557,0.091l0.179-0.682l0.306-0.523L246.989,168.645z
	 M118.861,172.698l0.936-0.766l0.936,0.315l0.423-0.495l0.932,0.563l-0.154,0.449l-1.193,0.359l-0.58-0.427l-0.641,0.562
	L118.861,172.698z M114.523,176.465l-0.172,0.486l-0.646,0.396l-1.084-0.154l-0.851-0.353l-1.062-0.177l-1.462-0.686l-1.218-0.665
	l-1.838-1.382l0.893,0.245l1.661,0.825l1.41,0.444l0.318-0.556l0.011-0.848l0.694-0.515l0.745,0.135l0.583,0.581l0.809,0.936
	l1.499,0.732l1.451,0.31l-0.235,0.619l-0.869,0.066L114.523,176.465z"/>
<path fill="#50285A" d="M93.011,45.396L92.8,45.58l-0.315,0.484l-0.267,0.139l-0.398,0.624l0.042-0.439l-0.514,0.324l-0.4,0.417
	l-0.479,0.648l-0.255,0.534l0.097,0.813L90,49.96l-0.61,0.629l-0.282,0.187l-0.341,0.14h-0.334l-0.088-0.07l-0.032-0.699
	l0.107-0.326l0.146-0.326l0.063-0.628l0.429-0.72l0.57-0.904l0.861-0.994h-0.146l-1.061,0.832l-0.061-0.139l0.566-0.462l0.88-0.831
	l0.732-0.115l0.889-0.254L93.011,45.396z M94.122,49.193l0.132-0.535l0.056-0.743l-0.357-0.139l-0.813,0.58l-0.176-0.023
	l0.033-0.325l0.718-0.51l0.302-0.579l0.122-0.578l-0.59-0.508L92.8,45.58l0.21-0.185l0.028,0.023l0.948-0.115l-0.321-0.529
	l0.247-0.184l0.111,0.299l0.705,0.162h0.762l0.75,0.138l0.821,0.253l0.197,0.392l0.339,0.97l-0.47,0.439l-0.745-0.185l-0.253-0.786
	l-0.157,0.809L95.264,47.8l-0.157,0.603l-0.191,0.372L94.122,49.193z M83.217,30.348l0.237,0.173l-0.764,0.63l-0.04,0.13
	l-1.804,1.092l-0.019-0.088l0.333-0.35l0.046-0.022l-0.031,0.175l0.654-0.437l0.044-0.436L82,31l1.015-0.651H83.217z M76.75,29.118
	l-1.694,0.56l-0.018-0.129l0.102-0.108l2.505-0.946l2.19,0.279l-0.026,0.043L76.75,29.118z M75.348,20.754l-0.509,0.408
	l-0.207,0.103l-1.457,0.041l-0.065,0.082l-0.049,0.144l-0.177,0.185l-1.901,0.555l0.098-0.124l0.691-0.432l-0.03-0.082l-1.712,0.473
	l-0.441-0.165l0.164-0.165l1.191-0.533l0.067-0.123l-2.125-0.184l0.117-0.102l5.514-0.935l-0.004,0.122l-1.05,0.447l2.314-0.102
	L75.65,20.53L75.348,20.754z M62.792,51.313l-0.068,0.256l-0.188,0.374l-0.378-0.351l-0.018-0.046l0.064-0.607l0.191,0.257
	l0.138,0.117l0.271-0.117L62.792,51.313z M210.81,25.289l0.471,0.653l0.411,0.529l-0.198,0.297l-0.673,0.085l-0.473-0.212
	l0.301,0.021l0.366,0.021l-0.472-0.36l-0.303-0.19l-0.436-0.359l-0.285-0.421l0.016-0.084l0.344,0.084l-0.092-0.273l0.236,0.189
	l0.269,0.189l0.117-0.063l0.21-0.084l-0.353-0.273l-0.556-0.314l0.329,0.021l0.245,0.083L210.81,25.289z M82.412,36.311l-0.15,0.022
	l-0.256-0.044l-0.513-0.156l-0.015-0.312l0.414-0.267l-0.001-0.2l0.057-0.044l0.161-0.178l0.161-0.178l0.23,0.022l-0.104,0.133
	l-0.252,0.222h0.312l-0.138,0.134l-0.377,0.467l0.292,0.178l0.267,0.022L82.412,36.311z M101.373,126.304l-0.383-0.259l-0.301-0.234
	l0.112-0.095l-0.015-0.164l-0.063-0.259l0.329,0.094l0.734,0.611l0.042,0.023l0.293,0.588l-0.143,0.188l-0.116,0.047l-0.088-0.094
	l-0.126-0.071l-0.102-0.234L101.373,126.304z M220.008,89.863l-0.129-0.234l0.231-0.258l0.325,0.094l-0.023,0.446l-0.156,0.141
	L220.008,89.863z M83.602,90.778l-0.481-0.023l-0.529-0.446l-0.079-0.517l0.366-0.047l0.561,0.54L83.602,90.778z M90.788,70.328
	l-0.226-0.047l0.055-0.307l0.226,0.047L90.788,70.328z M191.464,28.924l0.011,0.129l-0.05,0.215l-0.574,0.367l-0.394,0.108h-0.336
	l0.044-0.324l-0.041-0.108l0.161-0.086l0.296-0.064l0.155-0.151l0.348-0.258L191.464,28.924z M237.836,45.949l-0.051-0.507
	l0.425-0.046l0.4,0.3l-0.158-0.783l0.235,0.069l0.378,0.208l0.063,0.253l-0.116,0.115l-0.018,0.369l0.237-0.069l0.396,1.017
	l-0.059,0.671l-0.229,0.116l-0.793-0.255l0.1-0.81l-0.061-0.254l-0.457-0.231l0.047,0.346l0.11,0.463l-0.276,0.694l-0.3-0.347
	l-0.125-0.532L237.836,45.949z M217.798,123.907l-0.046,0.141l-0.382-0.493l-0.214,0.329l-0.148-0.282l0.019-0.493l-0.227-0.376
	l0.021-0.563l-0.289-0.963l0.347-0.728l-0.033-1.572l-0.38-0.845l0.132-0.398l0.546,0.704l0.081,1.36l0.347,0.493l-0.324,1.268
	l0.14,1.667l0.199,0.047L217.798,123.907z M213.033,116.467l-0.361-0.094l0.092-0.516l-0.316-0.352l-0.108-0.704l-0.676-0.703
	l-0.39-0.938l0.21-0.563l-0.274-0.727l0.223-2.086l0.394,1.266l-0.047,0.609l0.199,0.211l-0.047,0.539l0.195,0.516l-0.25,0.492
	l0.875,0.891l0.107,0.798l0.615,1.547l-0.204,0.094L213.033,116.467z M257.8,44.36l0.327,0.115l-0.238,0.368l-0.44,0.092
	l-1.277-0.138l-1.638-0.138l-0.247-0.207l0.045,0.253l-0.479,0.092l-0.029,0.368l-0.429,0.138l0.213,1.292l-0.929-0.785
	l-0.077-0.253l0.242-0.277l-0.137-0.207l0.319-0.023l-0.021-0.299l0.715-0.483l1.28,0.046l1.028,0.161h0.688l0.51,0.23l0.033-0.23
	L257.8,44.36z M205.722,26.513l0.801-0.634l1.688,0.761l0.508,0.573l-0.095,0.192l-0.211-0.064l0.074,0.384l-0.836-0.043
	l-0.094,0.385h-0.398l-0.018-0.278l-0.635-0.576l-0.075-0.233L205.722,26.513z M216.835,106.671l-0.568,0.585l-0.367,0.586
	l0.442,0.445l-0.649,0.328l-0.121-0.141l-0.648,0.07l-0.528,0.281l-0.28-0.492l0.207-0.914l0.043-0.772l-0.079-0.516l0.527-0.75
	l0.688-0.188l0.485-0.328l0.607,0.258l0.324,0.586L216.835,106.671z M89.158,42.755l0.593-0.502l0.655-0.206l0.341-0.319l0.278-0.16
	l0.83,0.251l0.662,0.045l0.188,0.16l0.043,0.731l1.044,0.183l-0.316,0.366l0.261,0.367l-0.32,0.482l0.339,0.161l-0.337,0.437
	l-0.31-0.046l-0.084-0.368l-1.018,0.115l-1.006,0.276l-0.508-0.483l-0.518-0.161l0.577-0.666l-1.059,0.413l-0.952,0.414
	l-0.882,0.322l-0.446-0.437l-1.119,0.275l0.072-0.184l0.902-0.551l0.919-0.504L89.158,42.755z M93.056,50.356l0.534,0.07
	l0.898-0.396l0.558-0.372l0.31-0.047l0.519,0.117l0.352-0.187l0.529-0.163l0.935-0.163l0.001,0.117L96.575,50.1l-0.889,0.373
	l-0.575,0.187l-0.735,0.35l-0.798,0.187l-0.499-0.07l-0.545-0.28L93.056,50.356z M100.845,47.893l-0.079,0.51l-0.896,0.418
	l-0.819-0.093l-0.795-0.046l-0.565,0.163l-0.353,0.07l-0.362-0.14l0.43-0.441l0.374-0.14l0.792-0.186l0.9-0.186l0.363,0.255
	l0.385-0.302l0.379-0.162l0.192,0.093L100.845,47.893z M74.147,25.646l-0.238-0.673l-0.031-0.272l0.165,0.042l0.998,0.377
	l0.668,0.441l1.755-0.462l1.042-0.566l0.908-0.188l0.54,0.251l0.25,0.063l-0.132,0.146l-1.053,0.21l-1.171,0.189l-1.878,0.927
	l-1.311,0.571l-1.708,0.233l-1.036,0.021l-1.106-0.53l-0.217-0.063l0.104-0.19l0.227-0.042l1.051,0.275l1.348-0.423L74.147,25.646z
	 M83.322,35.331l1.228-0.51l-0.042,0.355l-0.25,0.778l0.021,2.51l-0.274,0.903l-0.594,0.294l-0.001-0.384l0.112-0.925l-0.541-0.854
	L82.607,36.2L83.322,35.331z M281.765,36.713l-0.118-0.157l0.354-0.313l0.076-0.245l0.181-0.178l0.195-0.401l0.062-0.511
	l0.094-0.929l-0.233-0.639l0.18-0.22l0.424,0.022l0.273,0.881l0.156,0.332l0.093,0.465l0.225,0.644l0.032,0.245l-0.319-0.2
	l-0.147,0.423l0.211,0.067l0.088,0.223l-0.23,0.089l-0.06,0.402l-0.193,0.291l-0.382,0.202l-0.605,0.112l-0.338,0.359l-0.177,0.337
	l-0.296,0.315l-0.388,0.068l-0.55-0.045l-0.596-0.135l-0.195-0.18l0.143-0.135h0.525l0.575-0.18l0.199-0.359l0.338-0.292
	l0.209-0.134L281.765,36.713z"/>
<rect x="-24" fill-rule="evenodd" clip-rule="evenodd" fill="none" width="405" height="210.6"/>
</svg>
